<svg width="36" height="36" viewBox="0 0 36 36" fill="none" xmlns="http://www.w3.org/2000/svg">
<g id="vuesax/bold/login">
<g id="login">
<path id="Vector" d="M16.1396 3C15.4196 3 14.8496 3.57 14.8496 4.29V16.98H20.3546L17.9996 14.625C17.5646 14.19 17.5646 13.47 17.9996 13.035C18.4346 12.6 19.1546 12.6 19.5896 13.035L23.8496 17.31C24.2846 17.745 24.2846 18.465 23.8496 18.9L19.5896 23.175C19.3646 23.4 19.0796 23.505 18.7946 23.505C18.5096 23.505 18.2246 23.4 17.9996 23.175C17.5646 22.74 17.5646 22.02 17.9996 21.585L20.3396 19.245H14.8496V31.74C14.8496 32.445 15.4196 33.03 16.1396 33.03C24.9746 33.03 31.1396 26.865 31.1396 18.03C31.1396 9.195 24.9596 3 16.1396 3Z" fill="#FFCE5B"/>
<path id="Vector_2" d="M5.98535 16.9805C5.37035 16.9805 4.86035 17.4905 4.86035 18.1055C4.86035 18.7205 5.37035 19.2305 5.98535 19.2305H14.8354V16.9805H5.98535Z" fill="#FFCE5B"/>
</g>
</g>
</svg>
