<svg width="24" height="24" viewBox="0 0 24 24" fill="none" xmlns="http://www.w3.org/2000/svg">
<g id="close-small">
<path id="Vector (Stroke)" fill-rule="evenodd" clip-rule="evenodd" d="M6.45198 8.23843C6.71781 7.85193 7.24662 7.75411 7.63312 8.01993L11.8818 10.942L14.8039 6.69339C15.0697 6.30689 15.5985 6.20907 15.985 6.47489C16.3715 6.74071 16.4693 7.26953 16.2035 7.65602L13.2814 11.9047L17.53 14.8268C17.9165 15.0926 18.0144 15.6214 17.7485 16.0079C17.4827 16.3944 16.9539 16.4922 16.5674 16.2264L12.3188 13.3043L9.39666 17.5529C9.13083 17.9394 8.60202 18.0373 8.21552 17.7714C7.82903 17.5056 7.7312 16.9768 7.99702 16.5903L10.9191 12.3417L6.67049 9.41956C6.28399 9.15374 6.18616 8.62493 6.45198 8.23843Z" fill="#EA1E0D" stroke="#EA1E0D" stroke-width="2" stroke-linecap="round" stroke-linejoin="round"/>
</g>
</svg>
