<svg width="36" height="36" viewBox="0 0 36 36" fill="none" xmlns="http://www.w3.org/2000/svg">
<g id="vuesax/bold/devices">
<g id="devices">
<path id="Vector" d="M30 9V9.36H22.305C17.85 9.36 15.78 11.43 15.78 15.885V23.55H14.625V28.875H15.78V31.125H7.425C6.81 31.125 6.3 30.615 6.3 30C6.3 29.385 6.81 28.875 7.425 28.875H12.375V23.55H9C4.305 23.55 3.045 22.395 3 17.85V9C3 4.2 4.2 3 9 3H24C28.8 3 30 4.2 30 9Z" fill="#FFCE5B"/>
<path id="Vector_2" d="M30.0003 11.6844C29.6253 11.6394 29.1903 11.6094 28.7253 11.6094H22.3053C19.0953 11.6094 18.0303 12.6744 18.0303 15.8844V28.8744C18.0453 29.8044 18.1503 30.5394 18.3753 31.1244C18.9003 32.4894 20.0853 32.9994 22.3053 32.9994H28.7253C31.9353 32.9994 33.0003 31.9344 33.0003 28.7244V15.8844C33.0003 13.1394 32.2203 11.9694 30.0003 11.6844ZM25.5153 15.1344C26.8203 15.1344 27.8703 16.1844 27.8703 17.4894C27.8703 18.7944 26.8203 19.8444 25.5153 19.8444C24.2103 19.8444 23.1603 18.7944 23.1603 17.4894C23.1603 16.1844 24.2103 15.1344 25.5153 15.1344ZM25.5153 28.7244C23.7453 28.7244 22.3053 27.2844 22.3053 25.5144C22.3053 24.7794 22.5603 24.0894 22.9803 23.5494C23.5653 22.7994 24.4803 22.3044 25.5153 22.3044C26.3253 22.3044 27.0603 22.6044 27.6153 23.0844C28.2903 23.6844 28.7253 24.5544 28.7253 25.5144C28.7253 27.2844 27.2853 28.7244 25.5153 28.7244Z" fill="#FFCE5B"/>
<path id="Vector_3" d="M30.0003 11.6844C29.6253 11.6394 29.1903 11.6094 28.7253 11.6094H22.3053C19.0953 11.6094 18.0303 12.6744 18.0303 15.8844V28.8744C18.0453 29.8044 18.1503 30.5394 18.3753 31.1244C18.9003 32.4894 20.0853 32.9994 22.3053 32.9994H28.7253C31.9353 32.9994 33.0003 31.9344 33.0003 28.7244V15.8844C33.0003 13.1394 32.2203 11.9694 30.0003 11.6844ZM25.5153 15.1344C26.8203 15.1344 27.8703 16.1844 27.8703 17.4894C27.8703 18.7944 26.8203 19.8444 25.5153 19.8444C24.2103 19.8444 23.1603 18.7944 23.1603 17.4894C23.1603 16.1844 24.2103 15.1344 25.5153 15.1344ZM25.5153 28.7244C23.7453 28.7244 22.3053 27.2844 22.3053 25.5144C22.3053 24.7794 22.5603 24.0894 22.9803 23.5494C23.5653 22.7994 24.4803 22.3044 25.5153 22.3044C26.3253 22.3044 27.0603 22.6044 27.6153 23.0844C28.2903 23.6844 28.7253 24.5544 28.7253 25.5144C28.7253 27.2844 27.2853 28.7244 25.5153 28.7244Z" fill="#FFCE5B"/>
</g>
</g>
</svg>
