<svg width="55" height="54" viewBox="0 0 55 54" fill="none" xmlns="http://www.w3.org/2000/svg">
<g id="fontisto:world-o" clip-path="url(#clip0_1327_1842)">
<path id="Vector" d="M54.667 26.9998V26.9863C54.667 18.9965 51.1885 11.8213 45.6648 6.887L45.6377 6.8645C45.5696 6.79096 45.4933 6.7253 45.4105 6.66875L45.406 6.6665C40.5001 2.35895 34.1911 -0.0107182 27.6625 0.00200409C20.8405 0.00200409 14.6125 2.5355 9.865 6.716L9.89425 6.69125C9.83703 6.73466 9.78427 6.78365 9.73675 6.8375C6.88269 9.36468 4.59818 12.4717 3.03458 15.9484C1.47097 19.4251 0.663962 23.1944 0.667001 27.0065C0.667001 34.994 4.141 42.1693 9.66025 47.1058L9.68725 47.1283C9.75872 47.2093 9.83868 47.2825 9.92575 47.3465L9.93025 47.3488C14.8349 51.65 21.139 54.0161 27.6625 54.0043C34.2164 54.0143 40.5476 51.6262 45.4622 47.2903L45.433 47.315C48.3365 44.7906 50.664 41.6721 52.2578 38.1703C53.8517 34.6685 54.6748 30.8652 54.6715 27.0178V27.002L54.667 26.9998ZM44.6275 44.561C43.29 43.4791 41.8516 42.5282 40.3322 41.7215L40.186 41.6495C41.5653 37.6738 42.3955 33.0905 42.4743 28.3228V28.2868H52.0615C51.7382 34.4549 49.0833 40.2698 44.6343 44.5543L44.6275 44.561ZM28.954 41.1748C31.8407 41.33 34.5385 41.9645 37.027 42.9973L36.865 42.9388C34.8715 47.4838 32.0658 50.6068 28.954 51.293V41.1748ZM28.954 38.6008V28.2868H39.907C39.8201 32.5578 39.0795 36.7904 37.711 40.8373L37.7988 40.5425C35.0053 39.3944 32.0342 38.7382 29.017 38.603L28.9563 38.6008H28.954ZM28.954 25.7128V15.3988C32.0526 15.2573 35.1032 14.579 37.9698 13.394L37.792 13.4593C39.0408 17.102 39.808 21.3005 39.907 25.6655V25.7128H28.954ZM28.954 12.8248V2.711C32.0658 3.39725 34.8715 6.50675 36.865 11.0653C34.5385 12.0328 31.8407 12.665 29.0193 12.8225L28.954 12.8248ZM35.3755 3.82475C38.0268 4.70908 40.5064 6.04249 42.706 7.76675L42.6543 7.72625C41.6575 8.50925 40.5393 9.24725 39.3603 9.8885L39.2343 9.9515C38.2815 7.70314 36.9717 5.62357 35.3553 3.79325L35.3755 3.818V3.82475ZM26.3755 2.71775V12.8248C23.6001 12.6832 20.8695 12.0667 18.3025 11.0023L18.4645 11.0608C20.467 6.51575 23.2683 3.395 26.38 2.70875L26.3755 2.71775ZM16.0975 9.94475C14.8778 9.28856 13.7157 8.53062 12.6235 7.679L12.6775 7.7195C14.813 6.04585 17.2151 4.74365 19.783 3.8675L19.954 3.81575C18.3799 5.59648 17.0973 7.6149 16.1538 9.79625L16.0975 9.94475ZM26.38 15.3965V25.7105H15.427C15.526 21.2983 16.2933 17.0998 17.6298 13.1623L17.542 13.457C20.3344 14.6033 23.3038 15.2587 26.3193 15.3943L26.38 15.3965ZM26.38 28.2845V38.5985C23.2814 38.7399 20.2308 39.4182 17.3643 40.6033L17.542 40.538C16.2933 36.8975 15.526 32.6968 15.427 28.3318V28.2845H26.38ZM26.38 41.1725V51.2863C23.2683 50.6 20.4625 47.4905 18.469 42.932C20.7955 41.9645 23.4933 41.3345 26.3148 41.177L26.38 41.1725ZM19.9675 50.1725C17.3169 49.2908 14.8374 47.9604 12.637 46.2395L12.691 46.28C13.6878 45.497 14.806 44.759 15.985 44.1178L16.111 44.0548C17.0557 46.304 18.3656 48.3818 19.9878 50.204L19.9675 50.1815V50.1725ZM39.2365 44.0525C40.5415 44.7613 41.6598 45.497 42.7105 46.3183L42.6565 46.2778C40.521 47.9514 38.1189 49.2536 35.551 50.1298L35.38 50.1815C36.954 48.4016 38.2366 46.3839 39.1803 44.2033L39.2365 44.057V44.0525ZM52.0615 25.7128H42.4743C42.4053 21.0574 41.6019 16.4421 40.0938 12.0373L40.186 12.3478C41.7754 11.5109 43.2802 10.5223 44.6793 9.39575L44.6253 9.43625C49.0651 13.7046 51.7209 19.4979 52.057 25.6475L52.0615 25.7128ZM10.7065 9.4385C12.0025 10.4915 13.4583 11.4568 15.0017 12.278L15.148 12.35C13.7688 16.3258 12.9385 20.909 12.8598 25.6768V25.7128H3.27025C3.59356 19.5446 6.24846 13.7297 10.6975 9.44525L10.7065 9.4385ZM3.2725 28.2868H12.8598C12.9287 32.9421 13.7321 37.5574 15.2403 41.9623L15.148 41.6518C13.4583 42.5495 12.0048 43.5148 10.6548 44.6038L10.7088 44.5633C6.26891 40.2949 3.61307 34.5016 3.277 28.352L3.27475 28.289L3.2725 28.2868Z" fill="#FFCE5B"/>
</g>
<defs>
<clipPath id="clip0_1327_1842">
<rect width="54" height="54" fill="white" transform="translate(0.666992)"/>
</clipPath>
</defs>
</svg>
