<svg width="249" height="71" viewBox="0 0 249 71" fill="none" xmlns="http://www.w3.org/2000/svg">
<g id="Frame 1321317065">
<rect x="0.5" y="0.19043" width="248" height="70" rx="35" fill="black"/>
<g id="Icon">
<g id="Vector">
<path d="M68.8061 33.8237C68.7554 28.3446 73.4194 25.679 73.6327 25.5549C70.9912 21.8098 66.8971 21.2981 65.4584 21.2573C62.0198 20.9054 58.6843 23.2582 56.9326 23.2582C55.146 23.2582 52.4486 21.2913 49.5415 21.3491C45.8004 21.4052 42.3006 23.5115 40.3812 26.7823C36.4199 33.4514 39.3742 43.2519 43.1695 48.6426C45.068 51.2827 47.2864 54.2305 50.19 54.1268C53.0308 54.0129 54.0919 52.3656 57.52 52.3656C60.9167 52.3656 61.9131 54.1268 64.8745 54.0605C67.9232 54.0129 69.8427 51.4085 71.6748 48.7446C73.8687 45.7186 74.7498 42.7385 74.7847 42.5855C74.7131 42.5617 68.8638 40.3908 68.8061 33.8237Z" fill="white"/>
<path d="M63.212 17.7111C64.7399 15.853 65.7853 13.3251 65.4951 10.7598C63.2837 10.855 60.5181 12.2473 58.9255 14.0646C57.5165 15.666 56.2579 18.2908 56.583 20.7592C59.0671 20.9394 61.6177 19.5403 63.212 17.7111Z" fill="white"/>
</g>
</g>
<g id="Download on the">
<path id="D" d="M100.506 16.3449C100.506 18.0523 99.9798 19.3375 98.9282 20.2005C97.9541 20.9969 96.5699 21.3958 94.7769 21.3958C93.8879 21.3958 93.1272 21.3581 92.4902 21.2826V11.9541C93.3211 11.8236 94.2161 11.7568 95.1827 11.7568C96.8906 11.7568 98.1779 12.118 99.046 12.8404C100.019 13.6571 100.506 14.8248 100.506 16.3449ZM98.8581 16.387C98.8581 15.2802 98.5567 14.4317 97.9541 13.8398C97.3515 13.2495 96.4714 12.9535 95.3124 12.9535C94.8202 12.9535 94.401 12.9855 94.0535 13.0522V20.144C94.2459 20.173 94.5979 20.186 95.1096 20.186C96.3059 20.186 97.2292 19.8626 97.8795 19.2156C98.5299 18.5687 98.8581 17.6258 98.8581 16.387Z" fill="white"/>
<path id="o" d="M109.246 17.8356C109.246 18.8873 108.938 19.7489 108.32 20.4249C107.673 21.1197 106.815 21.4664 105.744 21.4664C104.712 21.4664 103.89 21.1342 103.277 20.4669C102.665 19.8011 102.359 18.9613 102.359 17.9488C102.359 16.8899 102.674 16.021 103.307 15.3465C103.939 14.672 104.789 14.334 105.86 14.334C106.892 14.334 107.722 14.6662 108.35 15.332C108.946 15.9789 109.246 16.8144 109.246 17.8356ZM107.625 17.8849C107.625 17.254 107.485 16.7129 107.206 16.2618C106.878 15.7164 106.411 15.4437 105.804 15.4437C105.176 15.4437 104.698 15.7164 104.37 16.2618C104.09 16.7129 103.951 17.2627 103.951 17.9125C103.951 18.5435 104.091 19.0846 104.37 19.5357C104.709 20.0811 105.18 20.3538 105.789 20.3538C106.385 20.3538 106.854 20.0767 107.191 19.5212C107.48 19.0614 107.625 18.5159 107.625 17.8849Z" fill="white"/>
<path id="w" d="M120.963 14.4736L118.763 21.3116H117.331L116.42 18.3423C116.189 17.601 116.001 16.8642 115.854 16.1331H115.826C115.69 16.8845 115.502 17.6199 115.261 18.3423L114.293 21.3116H112.844L110.775 14.4736H112.382L113.177 17.7243C113.369 18.4931 113.527 19.2257 113.654 19.919H113.683C113.799 19.3475 113.991 18.6193 114.263 17.7388L115.261 14.4751H116.535L117.491 17.6692C117.722 18.4482 117.91 19.1981 118.055 19.9205H118.098C118.204 19.217 118.363 18.467 118.575 17.6692L119.428 14.4751H120.963V14.4736Z" fill="white"/>
<path id="n" d="M129.068 21.3116H127.505V17.3951C127.505 16.1882 127.033 15.5848 126.087 15.5848C125.624 15.5848 125.249 15.7502 124.958 16.0824C124.67 16.4145 124.524 16.8062 124.524 17.2544V21.3102H122.961V16.4276C122.961 15.8271 122.942 15.1758 122.904 14.4708H124.278L124.351 15.5398H124.394C124.576 15.2077 124.848 14.9335 125.204 14.7145C125.628 14.4592 126.102 14.3301 126.621 14.3301C127.278 14.3301 127.824 14.5361 128.258 14.9495C128.798 15.4557 129.068 16.2115 129.068 17.2152V21.3116Z" fill="white"/>
<path id="l" d="M133.379 21.3114H131.817V11.3359H133.379V21.3114Z" fill="white"/>
<path id="o_2" d="M142.582 17.8356C142.582 18.8873 142.273 19.7489 141.656 20.4249C141.009 21.1197 140.149 21.4664 139.08 21.4664C138.046 21.4664 137.224 21.1342 136.613 20.4669C136.001 19.8011 135.695 18.9613 135.695 17.9488C135.695 16.8899 136.01 16.021 136.643 15.3465C137.275 14.672 138.125 14.334 139.195 14.334C140.228 14.334 141.056 14.6662 141.686 15.332C142.282 15.9789 142.582 16.8144 142.582 17.8356ZM140.959 17.8849C140.959 17.254 140.819 16.7129 140.54 16.2618C140.213 15.7164 139.745 15.4437 139.14 15.4437C138.51 15.4437 138.033 15.7164 137.706 16.2618C137.426 16.7129 137.287 17.2627 137.287 17.9125C137.287 18.5435 137.427 19.0846 137.706 19.5357C138.045 20.0811 138.516 20.3538 139.125 20.3538C139.721 20.3538 140.188 20.0767 140.525 19.5212C140.816 19.0614 140.959 18.5159 140.959 17.8849Z" fill="white"/>
<path id="a" d="M150.148 21.3112H148.744L148.628 20.5235H148.584C148.104 21.1516 147.419 21.4664 146.53 21.4664C145.867 21.4664 145.33 21.2589 144.925 20.847C144.558 20.4727 144.375 20.0071 144.375 19.4545C144.375 18.6189 144.733 17.9821 145.453 17.5412C146.172 17.1002 147.184 16.8841 148.486 16.8942V16.7666C148.486 15.8658 148 15.4161 147.026 15.4161C146.332 15.4161 145.72 15.5858 145.192 15.9223L144.875 14.9244C145.528 14.5313 146.335 14.334 147.287 14.334C149.124 14.334 150.046 15.2768 150.046 17.1626V19.6807C150.046 20.364 150.081 20.9079 150.148 21.3112ZM148.525 18.9613V17.9067C146.8 17.8777 145.938 18.3375 145.938 19.2847C145.938 19.6416 146.037 19.9085 146.238 20.0869C146.439 20.2653 146.696 20.3538 147.002 20.3538C147.345 20.3538 147.666 20.2479 147.958 20.0376C148.252 19.8258 148.432 19.5574 148.499 19.2282C148.516 19.1542 148.525 19.0643 148.525 18.9613Z" fill="white"/>
<path id="d" d="M159.032 21.3114H157.644L157.571 20.2134H157.528C157.085 21.0489 156.33 21.4666 155.27 21.4666C154.423 21.4666 153.717 21.1432 153.158 20.4962C152.598 19.8493 152.319 19.0094 152.319 17.978C152.319 16.8713 152.622 15.9748 153.231 15.2902C153.82 14.6519 154.542 14.3328 155.401 14.3328C156.345 14.3328 157.006 14.6418 157.382 15.2611H157.412V11.3359H158.977V19.4692C158.977 20.135 158.994 20.7486 159.032 21.3114ZM157.412 18.4277V17.2876C157.412 17.0903 157.397 16.9307 157.369 16.8089C157.281 16.4434 157.091 16.1358 156.803 15.8878C156.512 15.6397 156.162 15.515 155.758 15.515C155.174 15.515 154.718 15.7398 154.382 16.191C154.05 16.6421 153.881 17.2179 153.881 17.9215C153.881 18.5974 154.041 19.1457 154.361 19.5679C154.7 20.0175 155.156 20.2424 155.728 20.2424C156.241 20.2424 156.651 20.0552 156.963 19.6795C157.264 19.3329 157.412 18.9151 157.412 18.4277Z" fill="white"/>
<path id="o_3" d="M172.4 17.8356C172.4 18.8873 172.091 19.7489 171.473 20.4249C170.826 21.1197 169.97 21.4664 168.897 21.4664C167.867 21.4664 167.045 21.1342 166.43 20.4669C165.818 19.8011 165.513 18.9613 165.513 17.9488C165.513 16.8899 165.827 16.021 166.46 15.3465C167.092 14.672 167.943 14.334 169.015 14.334C170.046 14.334 170.877 14.6662 171.503 15.332C172.1 15.9789 172.4 16.8144 172.4 17.8356ZM170.78 17.8849C170.78 17.254 170.639 16.7129 170.361 16.2618C170.031 15.7164 169.565 15.4437 168.957 15.4437C168.33 15.4437 167.853 15.7164 167.523 16.2618C167.243 16.7129 167.104 17.2627 167.104 17.9125C167.104 18.5435 167.244 19.0846 167.523 19.5357C167.862 20.0811 168.333 20.3538 168.942 20.3538C169.539 20.3538 170.009 20.0767 170.346 19.5212C170.634 19.0614 170.78 18.5159 170.78 17.8849Z" fill="white"/>
<path id="n_2" d="M180.806 21.3116H179.245V17.3951C179.245 16.1882 178.773 15.5848 177.826 15.5848C177.362 15.5848 176.988 15.7502 176.699 16.0824C176.409 16.4145 176.264 16.8062 176.264 17.2544V21.3102H174.7V16.4276C174.7 15.8271 174.682 15.1758 174.645 14.4708H176.017L176.09 15.5398H176.133C176.317 15.2077 176.588 14.9335 176.943 14.7145C177.368 14.4592 177.841 14.3301 178.362 14.3301C179.017 14.3301 179.562 14.5361 179.997 14.9495C180.538 15.4557 180.806 16.2115 180.806 17.2152V21.3116Z" fill="white"/>
<path id="t" d="M191.325 15.6121H189.604V18.9339C189.604 19.7782 189.91 20.2003 190.515 20.2003C190.796 20.2003 191.029 20.1771 191.212 20.1292L191.252 21.2824C190.944 21.3955 190.538 21.4521 190.038 21.4521C189.421 21.4521 188.94 21.2693 188.593 20.9038C188.244 20.5382 188.071 19.9232 188.071 19.0601V15.6121H187.043V14.4735H188.071V13.2202L189.603 12.7705V14.472H191.324V15.6121H191.325Z" fill="white"/>
<path id="h" d="M199.603 21.3114H198.038V17.4239C198.038 16.1982 197.567 15.5846 196.623 15.5846C195.898 15.5846 195.402 15.94 195.131 16.6508C195.085 16.8002 195.058 16.983 195.058 17.1976V21.31H193.496V11.3359H195.058V15.457H195.088C195.58 14.707 196.285 14.3328 197.2 14.3328C197.847 14.3328 198.383 14.5388 198.808 14.9522C199.337 15.4671 199.603 16.233 199.603 17.2455V21.3114Z" fill="white"/>
<path id="e" d="M208.138 17.5691C208.138 17.8418 208.117 18.071 208.08 18.2581H203.392C203.413 18.9341 203.636 19.449 204.07 19.8058C204.467 20.125 204.979 20.2845 205.605 20.2845C206.299 20.2845 206.931 20.1772 207.501 19.9611L207.746 21.0171C207.079 21.2985 206.295 21.4392 205.386 21.4392C204.297 21.4392 203.44 21.1273 202.819 20.5036C202.195 19.8798 201.887 19.0429 201.887 17.9927C201.887 16.9613 202.175 16.1026 202.755 15.4179C203.36 14.6868 204.179 14.3213 205.213 14.3213C206.224 14.3213 206.993 14.6868 207.512 15.4179C207.931 15.9981 208.138 16.7162 208.138 17.5691ZM206.647 17.176C206.658 16.7249 206.556 16.3361 206.344 16.0083C206.072 15.5862 205.659 15.3744 205.1 15.3744C204.59 15.3744 204.173 15.5804 203.856 15.9938C203.596 16.3231 203.443 16.7162 203.392 17.176H206.647Z" fill="white"/>
</g>
<g id="App Store">
<path id="A" d="M107.305 50.6929H103.863L101.978 44.9317H95.4242L93.6283 50.6929H90.2773L96.7701 31.0791H100.78L107.305 50.6929ZM101.409 42.5146L99.7042 37.393C99.5239 36.8698 99.1859 35.6377 98.6873 33.6981H98.6267C98.4281 34.5323 98.1083 35.7644 97.6688 37.393L95.9941 42.5146H101.409Z" fill="white"/>
<path id="p" d="M124.003 43.4477C124.003 45.853 123.334 47.7542 121.997 49.1499C120.8 50.3924 119.313 51.0129 117.539 51.0129C115.623 51.0129 114.247 50.3437 113.409 49.0055H113.348V56.4557H110.117V41.206C110.117 39.6938 110.076 38.1419 109.997 36.5501H112.839L113.019 38.7918H113.08C114.157 37.1028 115.793 36.2598 117.987 36.2598C119.703 36.2598 121.135 36.9186 122.281 38.2377C123.43 39.5582 124.003 41.2944 124.003 43.4477ZM120.711 43.5626C120.711 42.1861 120.392 41.0512 119.753 40.1581C119.054 39.2266 118.116 38.7609 116.94 38.7609C116.143 38.7609 115.418 39.0203 114.771 39.5317C114.122 40.0475 113.698 40.7211 113.5 41.5553C113.4 41.9444 113.35 42.2627 113.35 42.5133V44.8714C113.35 45.9001 113.674 46.7682 114.323 47.4771C114.971 48.186 115.814 48.5398 116.851 48.5398C118.068 48.5398 119.015 48.0829 119.692 47.172C120.371 46.2597 120.711 45.0571 120.711 43.5626Z" fill="white"/>
<path id="p_2" d="M140.73 43.4477C140.73 45.853 140.061 47.7542 138.723 49.1499C137.527 50.3924 136.04 51.0129 134.266 51.0129C132.35 51.0129 130.974 50.3437 130.137 49.0055H130.077V56.4557H126.845V41.206C126.845 39.6938 126.804 38.1419 126.726 36.5501H129.567L129.748 38.7918H129.808C130.884 37.1028 132.52 36.2598 134.716 36.2598C136.43 36.2598 137.862 36.9186 139.011 38.2377C140.155 39.5582 140.73 41.2944 140.73 43.4477ZM137.438 43.5626C137.438 42.1861 137.118 41.0512 136.478 40.1581C135.78 39.2266 134.845 38.7609 133.667 38.7609C132.868 38.7609 132.145 39.0203 131.497 39.5317C130.848 40.0475 130.425 40.7211 130.227 41.5553C130.128 41.9444 130.077 42.2627 130.077 42.5133V44.8714C130.077 45.9001 130.401 46.7682 131.047 47.4771C131.695 48.1846 132.538 48.5398 133.578 48.5398C134.795 48.5398 135.742 48.0829 136.419 47.172C137.098 46.2597 137.438 45.0571 137.438 43.5626Z" fill="white"/>
<path id="S" d="M159.433 45.1928C159.433 46.8612 158.837 48.2186 157.641 49.2665C156.327 50.4117 154.498 50.9835 152.147 50.9835C149.977 50.9835 148.237 50.5768 146.92 49.7617L147.669 47.1427C149.087 47.9769 150.644 48.3955 152.34 48.3955C153.557 48.3955 154.504 48.1273 155.184 47.5937C155.862 47.0602 156.2 46.3439 156.2 45.4508C156.2 44.6549 155.921 43.9843 155.362 43.4405C154.805 42.8966 153.876 42.3911 152.579 41.9239C149.048 40.6431 147.284 38.7669 147.284 36.2997C147.284 34.6873 147.902 33.3653 149.14 32.3366C150.374 31.3064 152.02 30.792 154.078 30.792C155.913 30.792 157.438 31.103 158.655 31.7235L157.847 34.285C156.711 33.6837 155.425 33.383 153.987 33.383C152.85 33.383 151.962 33.6557 151.326 34.198C150.788 34.6829 150.518 35.2739 150.518 35.974C150.518 36.7492 150.826 37.3904 151.444 37.8944C151.982 38.3601 152.96 38.8642 154.378 39.408C156.113 40.0875 157.388 40.8819 158.208 41.7927C159.025 42.7006 159.433 43.8369 159.433 45.1928Z" fill="white"/>
<path id="t_2" d="M170.115 38.9084H166.553V45.775C166.553 47.5215 167.181 48.3941 168.439 48.3941C169.016 48.3941 169.495 48.3454 169.874 48.2481L169.963 50.6343C169.327 50.8657 168.489 50.9821 167.45 50.9821C166.174 50.9821 165.177 50.6033 164.457 49.8473C163.74 49.0897 163.38 47.8193 163.38 46.0344V38.9055H161.258V36.5474H163.38V33.9578L166.553 33.0264V36.5474H170.115V38.9084Z" fill="white"/>
<path id="o_4" d="M186.184 43.5056C186.184 45.6795 185.545 47.4643 184.269 48.8601C182.93 50.2971 181.154 51.0133 178.94 51.0133C176.806 51.0133 175.107 50.3251 173.84 48.9485C172.573 47.5719 171.939 45.8343 171.939 43.74C171.939 41.5484 172.591 39.7532 173.899 38.3575C175.204 36.9603 176.965 36.2617 179.179 36.2617C181.313 36.2617 183.03 36.95 184.326 38.328C185.566 39.6648 186.184 41.3907 186.184 43.5056ZM182.832 43.6073C182.832 42.303 182.545 41.1843 181.965 40.2514C181.288 39.1224 180.319 38.5594 179.064 38.5594C177.765 38.5594 176.779 39.1239 176.101 40.2514C175.521 41.1858 175.234 42.3221 175.234 43.6663C175.234 44.9706 175.521 46.0893 176.101 47.0207C176.8 48.1497 177.776 48.7127 179.035 48.7127C180.269 48.7127 181.238 48.1379 181.936 46.9912C182.532 46.0406 182.832 44.9102 182.832 43.6073Z" fill="white"/>
<path id="r" d="M196.687 39.3136C196.367 39.2561 196.026 39.2266 195.669 39.2266C194.532 39.2266 193.653 39.6437 193.035 40.4794C192.497 41.2163 192.227 42.1477 192.227 43.2723V50.693H188.997L189.027 41.004C189.027 39.374 188.987 37.8898 188.906 36.5516H191.721L191.839 39.2575H191.928C192.269 38.3276 192.807 37.5788 193.544 37.0173C194.264 36.5118 195.041 36.2598 195.879 36.2598C196.178 36.2598 196.448 36.2804 196.687 36.3172V39.3136Z" fill="white"/>
<path id="e_2" d="M211.139 42.9526C211.139 43.5156 211.101 43.9902 211.02 44.3778H201.327C201.365 45.775 201.833 46.8435 202.733 47.5805C203.55 48.2393 204.607 48.5694 205.904 48.5694C207.339 48.5694 208.649 48.3469 209.826 47.9003L210.332 50.0816C208.956 50.6652 207.332 50.9555 205.457 50.9555C203.202 50.9555 201.431 50.31 200.143 49.0204C198.858 47.7308 198.214 45.999 198.214 43.8266C198.214 41.694 198.813 39.918 200.011 38.5016C201.266 36.9895 202.962 36.2334 205.096 36.2334C207.192 36.2334 208.779 36.9895 209.857 38.5016C210.71 39.7028 211.139 41.1884 211.139 42.9526ZM208.058 42.1376C208.079 41.2061 207.868 40.4014 207.43 39.722C206.871 38.848 206.012 38.4117 204.855 38.4117C203.799 38.4117 202.939 38.8377 202.283 39.6925C201.745 40.3719 201.425 41.187 201.327 42.1361H208.058V42.1376Z" fill="white"/>
</g>
</g>
</svg>
