<svg width="249" height="70" viewBox="0 0 249 70" fill="none" xmlns="http://www.w3.org/2000/svg">
<g id="Frame 1321317077">
<rect x="0.5" width="248" height="70" rx="35" fill="white"/>
<g id="Icon">
<path id="Vector" d="M36.3073 14.1452C35.7959 14.668 35.5 15.4818 35.5 16.5358V54.1313C35.5 55.1853 35.7959 55.9992 36.3073 56.522L36.4335 56.6367L58.0056 35.578V35.0807L36.4335 14.022L36.3073 14.1452Z" fill="url(#paint0_linear_1327_2164)"/>
<path id="Vector_2" d="M65.1886 42.6016L58.0059 35.5784V35.0812L65.1973 28.0581L65.3583 28.1494L73.8749 32.8818C76.3054 34.2248 76.3054 36.4348 73.8749 37.7863L65.3583 42.5102L65.1886 42.6016Z" fill="url(#paint1_linear_1327_2164)"/>
<path id="Vector_3" d="M65.3584 42.5093L58.0059 35.3289L36.3076 56.5216C37.1149 57.3503 38.4313 57.4502 39.9284 56.6214L65.3584 42.5093Z" fill="url(#paint2_linear_1327_2164)"/>
<path id="Vector_4" d="M65.3584 28.1478L39.9284 14.0356C38.4313 13.2154 37.1149 13.3152 36.3076 14.144L58.0059 35.3281L65.3584 28.1478Z" fill="url(#paint3_linear_1327_2164)"/>
</g>
<g id="GET IT ON">
<path id="G" d="M99.3965 18.0431C99.3965 19.2894 99.0144 20.2876 98.2617 21.032C97.3962 21.9145 96.2691 22.3585 94.8878 22.3585C93.5677 22.3585 92.4405 21.907 91.5158 21.0171C90.5893 20.1141 90.127 19.0058 90.127 17.6793C90.127 16.3527 90.5893 15.2445 91.5158 14.3489C92.4405 13.4515 93.5677 13 94.8878 13C95.545 13 96.1716 13.1325 96.7696 13.3787C97.3657 13.6269 97.8509 13.9627 98.2024 14.3769L97.4039 15.1643C96.7906 14.4571 95.9558 14.1083 94.8878 14.1083C93.9249 14.1083 93.0901 14.4366 92.3813 15.099C91.6802 15.7632 91.3286 16.6233 91.3286 17.6793C91.3286 18.7353 91.6802 19.6028 92.3813 20.2671C93.0901 20.9219 93.9249 21.2578 94.8878 21.2578C95.9099 21.2578 96.7696 20.9219 97.4478 20.2596C97.8949 19.8211 98.149 19.2166 98.2158 18.4442H94.8878V17.3658H99.3277C99.3812 17.599 99.3965 17.8248 99.3965 18.0431Z" fill="black" stroke="black" stroke-width="0.16" stroke-miterlimit="10"/>
<path id="E" d="M106.441 14.306H102.271V17.1419H106.03V18.2203H102.271V21.0562H106.441V22.1551H101.09V13.207H106.441V14.306Z" fill="black" stroke="black" stroke-width="0.16" stroke-miterlimit="10"/>
<path id="T" d="M111.412 22.1551H110.231V14.306H107.673V13.207H113.972V14.306H111.412V22.1551Z" fill="black" stroke="black" stroke-width="0.16" stroke-miterlimit="10"/>
<path id="I" d="M118.529 22.1551V13.207H119.708V22.1551H118.529Z" fill="black" stroke="black" stroke-width="0.16" stroke-miterlimit="10"/>
<path id="T_2" d="M124.933 22.1551H123.762V14.306H121.194V13.207H127.501V14.306H124.933V22.1551Z" fill="black" stroke="black" stroke-width="0.16" stroke-miterlimit="10"/>
<path id="O" d="M139.425 21.0022C138.521 21.907 137.402 22.3585 136.067 22.3585C134.723 22.3585 133.604 21.907 132.7 21.0022C131.799 20.0991 131.35 18.9909 131.35 17.6793C131.35 16.3677 131.799 15.2594 132.7 14.3564C133.604 13.4515 134.723 13 136.067 13C137.394 13 138.514 13.4515 139.417 14.3639C140.327 15.2743 140.776 16.3751 140.776 17.6793C140.776 18.9909 140.327 20.0991 139.425 21.0022ZM133.573 20.2521C134.254 20.9219 135.081 21.2578 136.067 21.2578C137.045 21.2578 137.88 20.9219 138.552 20.2521C139.23 19.5823 139.574 18.7222 139.574 17.6793C139.574 16.6363 139.23 15.7762 138.552 15.1064C137.88 14.4366 137.045 14.1008 136.067 14.1008C135.081 14.1008 134.254 14.4366 133.573 15.1064C132.895 15.7762 132.551 16.6363 132.551 17.6793C132.551 18.7222 132.895 19.5823 133.573 20.2521Z" fill="black" stroke="black" stroke-width="0.16" stroke-miterlimit="10"/>
<path id="N" d="M142.433 22.1551V13.207H143.865L148.321 20.1662H148.372L148.321 18.446V13.207H149.499V22.1551H148.269L143.604 14.8526H143.552L143.604 16.5803V22.1551H142.433Z" fill="black" stroke="black" stroke-width="0.16" stroke-miterlimit="10"/>
</g>
<g id="Google Play">
<path id="Google Play_2" d="M129.185 37.026C125.752 37.026 122.948 39.5776 122.948 43.098C122.948 46.5898 125.752 49.1681 129.185 49.1681C132.626 49.1681 135.43 46.5898 135.43 43.098C135.43 39.5776 132.626 37.026 129.185 37.026ZM129.185 46.7772C127.302 46.7772 125.681 45.2587 125.681 43.098C125.681 40.9086 127.302 39.417 129.185 39.417C131.069 39.417 132.697 40.9086 132.697 43.098C132.697 45.2587 131.069 46.7772 129.185 46.7772ZM115.575 37.026C112.135 37.026 109.338 39.5776 109.338 43.098C109.338 46.5898 112.135 49.1681 115.575 49.1681C119.014 49.1681 121.813 46.5898 121.813 43.098C121.813 39.5776 119.014 37.026 115.575 37.026ZM115.575 46.7772C113.69 46.7772 112.064 45.2587 112.064 43.098C112.064 40.9086 113.69 39.417 115.575 39.417C117.459 39.417 119.08 40.9086 119.08 43.098C119.08 45.2587 117.459 46.7772 115.575 46.7772ZM99.3805 38.887V41.4671H105.689C105.505 42.9088 105.011 43.9687 104.255 44.7074C103.334 45.5995 101.9 46.5898 99.3805 46.5898C95.498 46.5898 92.4578 43.5298 92.4578 39.7382C92.4578 35.9465 95.498 32.8865 99.3805 32.8865C101.48 32.8865 103.007 33.6876 104.135 34.7261L105.996 32.9079C104.42 31.4376 102.322 30.3082 99.3805 30.3082C94.0565 30.3082 89.582 34.5387 89.582 39.7382C89.582 44.9376 94.0565 49.1681 99.3805 49.1681C102.258 49.1681 104.42 48.2474 106.119 46.5202C107.86 44.8198 108.402 42.4289 108.402 40.4983C108.402 39.8987 108.351 39.3474 108.26 38.887H99.3805ZM165.604 40.8872C165.09 39.5294 163.506 37.026 160.28 37.026C157.082 37.026 154.42 39.4866 154.42 43.098C154.42 46.4988 157.055 49.1681 160.587 49.1681C163.442 49.1681 165.09 47.4677 165.768 46.4774L163.649 45.0982C162.942 46.1081 161.979 46.7772 160.587 46.7772C159.204 46.7772 158.212 46.158 157.576 44.9376L165.891 41.5778L165.604 40.8872ZM157.126 42.9088C157.055 40.5678 158.988 39.3688 160.373 39.3688C161.458 39.3688 162.379 39.8987 162.686 40.6571L157.126 42.9088ZM150.368 48.7988H153.101V30.9559H150.368V48.7988ZM145.892 38.3785H145.8C145.187 37.6684 144.015 37.026 142.532 37.026C139.419 37.026 136.572 39.6953 136.572 43.1176C136.572 46.5202 139.419 49.1681 142.532 49.1681C144.015 49.1681 145.187 48.5204 145.8 47.7889H145.892V48.6596C145.892 50.981 144.622 52.2282 142.574 52.2282C140.904 52.2282 139.868 51.0506 139.44 50.0603L137.063 51.0291C137.749 52.6386 139.563 54.6191 142.574 54.6191C145.778 54.6191 148.483 52.7778 148.483 48.2974V37.3954H145.892V38.3785ZM142.766 46.7772C140.882 46.7772 139.305 45.2373 139.305 43.1176C139.305 40.9782 140.882 39.417 142.766 39.417C144.622 39.417 146.085 40.9782 146.085 43.1176C146.085 45.2373 144.622 46.7772 142.766 46.7772ZM178.401 30.9559H171.863V48.7988H174.589V42.0381H178.401C181.428 42.0381 184.397 39.8987 184.397 36.4961C184.397 33.0952 181.421 30.9559 178.401 30.9559ZM178.472 39.5562H174.589V33.4378H178.472C180.507 33.4378 181.669 35.0883 181.669 36.4961C181.669 37.8771 180.507 39.5562 178.472 39.5562ZM195.323 36.9921C193.353 36.9921 191.305 37.8414 190.463 39.7239L192.882 40.7142C193.402 39.7239 194.36 39.4027 195.372 39.4027C196.786 39.4027 198.22 40.2324 198.242 41.6973V41.8847C197.749 41.6063 196.693 41.1941 195.394 41.1941C192.789 41.1941 190.134 42.5948 190.134 45.2088C190.134 47.5997 192.268 49.1396 194.667 49.1396C196.501 49.1396 197.513 48.3313 198.149 47.391H198.242V48.7702H200.875V41.9257C200.875 38.7621 198.456 36.9921 195.323 36.9921ZM194.994 46.77C194.102 46.77 192.86 46.3382 192.86 45.2587C192.86 43.8777 194.409 43.3478 195.75 43.3478C196.951 43.3478 197.513 43.6065 198.242 43.9473C198.029 45.5995 196.572 46.77 194.994 46.77ZM210.467 37.3829L207.334 45.1178H207.241L204.001 37.3829H201.061L205.929 48.1921L203.152 54.207H206L213.5 37.3829H210.467ZM185.895 48.7988H188.628V30.9559H185.895V48.7988Z" fill="black"/>
</g>
</g>
<defs>
<linearGradient id="paint0_linear_1327_2164" x1="56.0903" y1="54.5229" x2="27.5682" y2="25.3173" gradientUnits="userSpaceOnUse">
<stop stop-color="#00A0FF"/>
<stop offset="0.0066" stop-color="#00A1FF"/>
<stop offset="0.2601" stop-color="#00BEFF"/>
<stop offset="0.5122" stop-color="#00D2FF"/>
<stop offset="0.7604" stop-color="#00DFFF"/>
<stop offset="1" stop-color="#00E3FF"/>
</linearGradient>
<linearGradient id="paint1_linear_1327_2164" x1="77.0398" y1="35.3274" x2="34.9193" y2="35.3274" gradientUnits="userSpaceOnUse">
<stop stop-color="#FFE000"/>
<stop offset="0.4087" stop-color="#FFBD00"/>
<stop offset="0.7754" stop-color="#FFA500"/>
<stop offset="1" stop-color="#FF9C00"/>
</linearGradient>
<linearGradient id="paint2_linear_1327_2164" x1="61.3604" y1="31.4256" x2="22.6821" y2="-8.17962" gradientUnits="userSpaceOnUse">
<stop stop-color="#FF3A44"/>
<stop offset="1" stop-color="#C31162"/>
</linearGradient>
<linearGradient id="paint3_linear_1327_2164" x1="30.8457" y1="69.0286" x2="48.1173" y2="51.3433" gradientUnits="userSpaceOnUse">
<stop stop-color="#32A071"/>
<stop offset="0.0685" stop-color="#2DA771"/>
<stop offset="0.4762" stop-color="#15CF74"/>
<stop offset="0.8009" stop-color="#06E775"/>
<stop offset="1" stop-color="#00F076"/>
</linearGradient>
</defs>
</svg>
