<svg width="36" height="36" viewBox="0 0 36 36" fill="none" xmlns="http://www.w3.org/2000/svg">
<g id="vuesax/bold/heart-search">
<g id="heart-search">
<path id="Vector" d="M32.61 30.7644L31.32 29.4744C31.995 28.4544 32.385 27.2394 32.385 25.9344C32.385 22.3794 29.505 19.4844 25.935 19.4844C22.365 19.4844 19.5 22.3794 19.5 25.9494C19.5 29.5194 22.38 32.3994 25.95 32.3994C27.255 32.3994 28.47 32.0094 29.49 31.3344L30.78 32.6244C31.035 32.8794 31.365 33.0144 31.71 33.0144C32.055 33.0144 32.385 32.8794 32.64 32.6244C33.135 32.0994 33.135 31.2744 32.61 30.7644Z" fill="#FFCE5B"/>
<path id="Vector_2" d="M33 13.0959C33 14.8809 32.715 16.5309 32.22 18.0609C32.13 18.3759 31.755 18.4659 31.485 18.2709C29.85 17.0559 27.855 16.4109 25.8 16.4109C20.595 16.4109 16.35 20.6559 16.35 25.8609C16.35 27.4809 16.77 29.0709 17.565 30.4809C17.805 30.9009 17.52 31.4409 17.07 31.2759C13.455 30.0459 6.15 25.5609 3.78 18.0609C3.285 16.5309 3 14.8809 3 13.0959C3 8.46094 6.735 4.71094 11.34 4.71094C14.055 4.71094 16.485 6.03094 18 8.05594C19.515 6.03094 21.945 4.71094 24.66 4.71094C29.265 4.71094 33 8.46094 33 13.0959Z" fill="#FFCE5B"/>
</g>
</g>
</svg>
