<svg width="54" height="54" viewBox="0 0 54 54" fill="none" xmlns="http://www.w3.org/2000/svg">
<g id="Icon">
<path id="Vector" d="M50.2547 21.8422C50.0739 21.2704 49.7255 20.7662 49.2545 20.3949C48.7836 20.0237 48.212 19.8025 47.6138 19.7602L34.9048 18.733L30.0068 6.87827C29.7783 6.32261 29.3898 5.8474 28.8907 5.51297C28.3915 5.17855 27.8043 5 27.2035 5C26.6027 5 26.0154 5.17855 25.5163 5.51297C25.0171 5.8474 24.6286 6.32261 24.4001 6.87827L19.5021 18.7287L6.79316 19.7602C6.19446 19.8028 5.62243 20.0246 5.15144 20.3966C4.68045 20.7687 4.33229 21.2738 4.15222 21.8464C3.96451 22.4174 3.95008 23.0313 4.11075 23.6105C4.27141 24.1897 4.59998 24.7084 5.05503 25.1012L14.7582 33.4564L11.805 45.9544C11.6665 46.5393 11.7045 47.1522 11.9144 47.7154C12.1243 48.2787 12.4966 48.767 12.9842 49.1185C13.4657 49.4752 14.0438 49.6782 14.6426 49.7008C15.2415 49.7234 15.8332 49.5645 16.3402 49.2451L27.2035 42.5668L38.0836 49.2556C38.5906 49.5751 39.1824 49.7339 39.7812 49.7113C40.3801 49.6888 40.9581 49.4858 41.4396 49.1291C41.9272 48.7775 42.2995 48.2892 42.5094 47.726C42.7193 47.1627 42.7574 46.5499 42.6188 45.965L39.6657 33.4669L49.3519 25.1012C49.8078 24.7081 50.1368 24.1887 50.2975 23.6086C50.4582 23.0285 50.4433 22.4138 50.2547 21.8422ZM47.6939 23.1858L37.4234 32.0452C37.2481 32.1964 37.1177 32.3928 37.0463 32.613C36.9749 32.8332 36.9653 33.0687 37.0184 33.294L40.1571 46.5387C40.1846 46.6387 40.1801 46.7448 40.1441 46.842C40.1082 46.9393 40.0426 47.0228 39.9567 47.0808C39.8789 47.141 39.7842 47.1754 39.6859 47.1792C39.5876 47.183 39.4905 47.156 39.4083 47.1019L27.8658 40.0102C27.6666 39.8879 27.4373 39.8231 27.2035 39.8231C26.9696 39.8231 26.7404 39.8879 26.5411 40.0102L14.9986 47.0998C14.9164 47.1539 14.8193 47.1809 14.721 47.1771C14.6227 47.1733 14.528 47.1389 14.4502 47.0787C14.3624 47.0221 14.2947 46.9392 14.2568 46.8419C14.219 46.7445 14.2128 46.6377 14.2392 46.5366L17.378 33.2919C17.4311 33.0666 17.4215 32.831 17.3501 32.6109C17.2787 32.3907 17.1482 32.1943 16.973 32.0431L6.70245 23.1837C6.62187 23.1181 6.56374 23.029 6.53615 22.9289C6.50855 22.8287 6.51286 22.7224 6.54847 22.6248C6.57598 22.5285 6.63284 22.4433 6.7111 22.3809C6.78937 22.3185 6.88516 22.2821 6.98511 22.2767L20.4682 21.1883C20.7006 21.1694 20.9232 21.0867 21.1115 20.9494C21.2999 20.812 21.4466 20.6254 21.5356 20.4099L26.731 7.83804C26.7672 7.74497 26.8307 7.66502 26.9131 7.60865C26.9955 7.55228 27.0931 7.52211 27.1929 7.52211C27.2928 7.52211 27.3903 7.55228 27.4727 7.60865C27.5552 7.66502 27.6187 7.74497 27.6549 7.83804L32.8503 20.4099C32.9392 20.6254 33.086 20.812 33.2743 20.9494C33.4627 21.0867 33.6853 21.1694 33.9176 21.1883L47.4007 22.2767C47.5007 22.2821 47.5965 22.3185 47.6747 22.3809C47.753 22.4433 47.8099 22.5285 47.8374 22.6248C47.8747 22.7216 47.8809 22.8276 47.8552 22.9282C47.8295 23.0287 47.7731 23.1188 47.6939 23.1858Z" fill="#FFBC05"/>
</g>
</svg>
