<svg width="54" height="54" viewBox="0 0 54 54" fill="none" xmlns="http://www.w3.org/2000/svg">
<g id="Icon">
<path id="Vector" d="M19.2707 45.0183C19.8278 45.0183 20.2804 45.1924 20.6286 45.5406C20.9767 45.8887 21.1508 46.3414 21.1508 46.8984V48.4651C21.1508 48.8133 21.0812 49.1267 20.9419 49.4052C20.8027 49.6837 20.5763 49.91 20.263 50.0841C19.9497 50.2582 19.6189 50.3452 19.2707 50.3452H17.704C17.4255 50.3452 17.1818 50.293 16.9729 50.1886C16.764 50.0841 16.5725 49.9448 16.3984 49.7708C16.2243 49.5967 16.0851 49.4052 15.9806 49.1963C15.8762 48.9874 15.8239 48.7437 15.8239 48.4651V46.8984C15.8239 46.3414 15.998 45.8887 16.3462 45.5406C16.6943 45.1924 17.1469 45.0183 17.704 45.0183H19.2707ZM19.2707 48.5696L19.3752 46.8984L19.2707 46.794H17.704L17.5996 46.8984V48.4651L17.704 48.5696H19.2707ZM11.3326 5.74561C11.9593 5.74561 12.2727 6.04155 12.2727 6.63343C12.2727 7.2253 11.9593 7.52124 11.3326 7.52124H4.23012C3.67306 7.52124 3.39453 7.2253 3.39453 6.63343C3.39453 6.04155 3.67306 5.74561 4.23012 5.74561H11.3326ZM50.3965 8.04349C50.5357 8.67018 50.5009 9.43613 50.292 10.3414C49.8046 12.3607 48.7253 14.1363 47.0541 15.6682L38.9071 22.9797L38.2804 22.4574L30.8645 15.6682C29.1237 14.1363 28.0444 12.3607 27.6266 10.3414C27.4177 9.3665 27.3481 8.60055 27.4177 8.04349V7.83459C27.557 6.5812 27.9226 5.46708 28.5145 4.49223C29.1063 3.51737 29.8723 2.75142 30.8123 2.19436C31.7524 1.63729 32.7794 1.35877 33.8936 1.35877C36.0522 1.35877 37.7582 2.22917 39.0116 3.96999C40.4042 2.22917 42.1102 1.35877 44.1295 1.35877C45.8007 1.35877 47.2456 1.96805 48.4642 3.18662C49.6827 4.40519 50.3268 5.95451 50.3965 7.83459V8.04349ZM48.6208 9.92356C48.8297 9.1576 48.8994 8.56573 48.8297 8.14793V8.04349C48.6905 6.65084 48.1682 5.48449 47.263 4.54445C46.3578 3.60442 45.3133 3.1344 44.1295 3.1344C42.1798 3.1344 40.7524 4.14407 39.8471 6.16341L39.0116 8.04349L38.176 6.16341C37.3404 4.14407 35.9129 3.1344 33.8936 3.1344C32.7098 3.1344 31.6653 3.58701 30.7601 4.49223C29.8549 5.39745 29.3326 6.5812 29.1934 8.04349V8.14793C29.1934 8.84426 29.263 9.43613 29.4023 9.92356C29.7504 11.5947 30.6208 13.0918 32.0135 14.4149L39.0116 20.6818L46.0096 14.4149C47.4023 13.0918 48.2727 11.5947 48.6208 9.92356ZM50.6054 31.7534C50.675 31.9622 50.6402 32.4149 50.5009 33.1112C50.2224 34.2253 49.6305 35.2002 48.7253 36.0357L44.9651 39.4826C44.617 39.8307 44.234 39.8307 43.8162 39.4826L40.056 36.0357C39.1508 35.2698 38.5589 34.2949 38.2804 33.1112C38.2108 32.763 38.176 32.3104 38.176 31.7534C38.3152 30.7089 38.7156 29.8385 39.3771 29.1421C40.0386 28.4458 40.8568 28.0976 41.8317 28.0976C42.7369 28.0976 43.6073 28.4458 44.4429 29.1421C45.1392 28.4458 45.9748 28.0976 46.9497 28.0976C47.9245 28.0976 48.7601 28.4458 49.4564 29.1421C50.1527 29.8385 50.5357 30.7089 50.6054 31.7534ZM48.6208 31.9622V31.8578C48.6208 31.3007 48.4293 30.8307 48.0464 30.4477C47.6634 30.0648 47.2282 29.8733 46.7408 29.8733C46.0444 29.8733 45.4874 30.2911 45.0696 31.1267C44.9303 31.4748 44.6692 31.6489 44.2862 31.6489C43.9032 31.6489 43.6421 31.4748 43.5028 31.1267C43.2243 30.2911 42.6324 29.8733 41.7272 29.8733C41.4487 29.8733 41.1702 29.9429 40.8916 30.0822C40.6131 30.2214 40.3868 30.4477 40.2127 30.7611C40.0386 31.0744 39.9516 31.44 39.9516 31.8578V31.9622C39.9516 32.2408 39.9516 32.5193 39.9516 32.7978C40.1605 33.6334 40.5783 34.2949 41.205 34.7824L44.3384 37.6025L47.263 34.6779C47.9593 34.1209 48.3771 33.4593 48.5164 32.6934C48.586 32.4149 48.6208 32.1711 48.6208 31.9622ZM34.5203 21.8307C35.0077 21.8307 35.4603 21.9526 35.8781 22.1963C36.2959 22.44 36.6266 22.7882 36.8703 23.2408C37.1141 23.6934 37.2359 24.1634 37.2359 24.6508V24.7553C37.2359 25.1731 37.2011 25.4864 37.1315 25.6953C36.9226 26.5309 36.5048 27.2969 35.8781 27.9932L33.3713 30.5C32.9535 30.9178 32.5357 30.9178 32.1179 30.5L29.6112 27.9932C28.9845 27.2969 28.5667 26.5309 28.3578 25.6953C28.3578 25.4864 28.3578 25.1731 28.3578 24.7553C28.4274 23.9197 28.7234 23.2234 29.2456 22.6663C29.7678 22.1093 30.3771 21.8307 31.0734 21.8307C31.7001 21.8307 32.2572 22.0396 32.7446 22.4574C33.3017 22.0396 33.8936 21.8307 34.5203 21.8307ZM35.5647 24.9642V24.8597C35.4255 24.0241 35.0773 23.6063 34.5203 23.6063C34.1721 23.6063 33.8936 23.8501 33.6847 24.3375C33.4758 24.6857 33.1798 24.8597 32.7969 24.8597C32.4139 24.8597 32.1528 24.6857 32.0135 24.3375C31.8046 23.8501 31.4912 23.6063 31.0734 23.6063C30.5164 23.6063 30.203 24.059 30.1334 24.9642C30.1334 25.1034 30.1682 25.2427 30.2379 25.382C30.3075 25.8694 30.5164 26.322 30.8645 26.7398L32.7446 28.6199L34.7292 26.7398C35.1469 26.322 35.3907 25.8694 35.4603 25.382C35.5299 25.2427 35.5647 25.1034 35.5647 24.9642ZM3.39453 42.3027H33.6847V50.3452C33.6847 51.3201 33.3365 52.1557 32.6402 52.852C31.9439 53.5483 31.1083 53.8965 30.1334 53.8965H6.94579C5.97093 53.8965 5.13534 53.5483 4.43902 52.852C3.74269 52.1557 3.39453 51.3201 3.39453 50.3452V42.3027ZM31.909 50.3452V44.0783H5.17016V50.3452C5.17016 50.8327 5.34424 51.2504 5.6924 51.5986C6.04057 51.9468 6.45836 52.1209 6.94579 52.1209H30.1334C30.6208 52.1209 31.0386 51.9468 31.3868 51.5986C31.735 51.2504 31.909 50.8327 31.909 50.3452ZM30.2379 42.616L31.2823 44.0783H7.57248L7.25913 42.1982L7.36358 42.0938C7.36358 41.9545 7.50285 41.7456 7.78138 41.4671C7.85101 41.3278 7.95546 41.1886 8.09472 41.0493C8.23399 40.91 8.35585 40.7534 8.46029 40.5793C8.56474 40.4052 8.6866 40.2485 8.82587 40.1093C9.87035 38.9951 10.8452 38.264 11.7504 37.9158C11.8897 37.9158 12.029 37.881 12.1682 37.8114C12.3075 37.8114 12.4119 37.8114 12.4816 37.8114C12.5512 37.8114 12.586 37.8114 12.586 37.8114L12.7949 37.7069C13.0734 37.498 13.2127 37.0106 13.2127 36.2446V35.5135V35.2002C13.2127 35.1305 13.1779 35.0783 13.1083 35.0435C13.0386 35.0087 13.0038 34.9564 13.0038 34.8868C12.6557 34.5387 12.3075 34.086 11.9593 33.529C11.3326 32.6934 10.88 31.823 10.6015 30.9178C9.90517 30.4303 9.55701 29.8036 9.55701 29.0377V26.8443C9.55701 26.2872 9.87035 25.6953 10.497 25.0686V22.5619C10.497 21.4477 10.88 20.4381 11.646 19.5328C13.0386 17.5831 15.3539 16.6083 18.5918 16.6083C21.8297 16.6083 24.145 17.5831 25.5377 19.5328C26.234 20.5773 26.5822 21.6218 26.5822 22.6663V25.2775C27.2088 25.9042 27.5222 26.4613 27.5222 26.9487V29.2466C27.5222 30.0125 27.2088 30.6392 26.5822 31.1267C26.3036 31.9622 25.851 32.8327 25.2243 33.7379C25.1547 33.8771 24.9806 34.1034 24.7021 34.4168C24.4235 34.7301 24.2495 34.9564 24.1798 35.0957L23.8665 35.3046V35.618V35.9313V36.1402V36.4535C23.8665 37.0802 23.9709 37.5328 24.1798 37.8114H24.2843C24.3539 37.8114 24.4061 37.8288 24.441 37.8636C24.4758 37.8984 24.528 37.9158 24.5976 37.9158H24.7021C26.234 38.264 27.7659 39.4477 29.2978 41.4671C29.3675 41.5367 29.4893 41.6934 29.6634 41.9371C29.8375 42.1808 30.029 42.4071 30.2379 42.616ZM9.34811 42.4071H27.6266C26.4429 40.8752 25.2939 39.97 24.1798 39.6915C24.1102 39.6915 24.0057 39.674 23.8665 39.6392C23.7272 39.6044 23.6228 39.587 23.5531 39.587C23.3442 39.4477 23.1702 39.3085 23.0309 39.1692C22.3346 38.6122 21.9864 37.7069 21.9864 36.4535V36.3491V36.0357V35.8269V35.2002C21.9864 34.852 22.0909 34.5387 22.2998 34.2601C22.2998 34.1905 22.439 34.0512 22.7175 33.8423C22.7175 33.7727 22.8394 33.5986 23.0831 33.3201C23.3268 33.0416 23.4835 32.8327 23.5531 32.6934C24.2495 31.6489 24.6324 30.8133 24.7021 30.1866L24.8065 29.8733L25.2243 29.6644C25.5028 29.3858 25.6421 29.1769 25.6421 29.0377V26.8443C25.4332 26.6354 25.2243 26.4265 25.0154 26.2176L24.7021 25.9042V25.4864V22.5619C24.7021 22.2833 24.7021 22.0744 24.7021 21.9352C24.5628 21.3085 24.3539 20.7862 24.0754 20.3684C23.0309 18.9062 21.1856 18.175 18.5396 18.175C15.8936 18.175 14.0483 18.9062 13.0038 20.3684C12.6557 21.1344 12.4468 21.6566 12.3771 21.9352C12.3075 22.1441 12.2727 22.353 12.2727 22.5619V25.9042L11.9593 26.2176C11.5415 26.4265 11.3326 26.6354 11.3326 26.8443V29.0377C11.3326 29.2466 11.5415 29.4555 11.9593 29.6644L12.1682 29.8733L12.2727 30.1866C12.4119 30.9526 12.7949 31.7882 13.4216 32.6934C13.5609 32.8327 13.735 33.0416 13.9439 33.3201C14.1528 33.5986 14.292 33.7727 14.3616 33.8423C14.4313 34.0512 14.5357 34.1905 14.675 34.2601L14.9883 34.469V34.7824V35.4091V36.3491C14.9883 37.7417 14.5705 38.7166 13.735 39.2737C13.6653 39.2737 13.5609 39.3085 13.4216 39.3781C13.2823 39.4477 13.1953 39.5 13.1605 39.5348C13.1257 39.5696 13.0386 39.6044 12.8994 39.6392C12.7601 39.674 12.6557 39.6915 12.586 39.6915C12.5164 39.7611 12.4119 39.7959 12.2727 39.7959C11.646 40.0048 10.9497 40.5619 10.1837 41.4671C10.0444 41.5367 9.88776 41.676 9.71368 41.8849C9.5396 42.0938 9.41774 42.233 9.34811 42.3027V42.4071ZM31.0734 23.6063C30.5164 23.6063 30.203 24.059 30.1334 24.9642C30.1334 25.1034 30.1682 25.2427 30.2379 25.382C30.3075 25.8694 30.5164 26.322 30.8645 26.7398L33.3713 29.2466C33.5802 29.3858 33.6847 29.5947 33.6847 29.8733V50.3452C33.6847 51.3201 33.3365 52.1557 32.6402 52.852C31.9439 53.5483 31.1083 53.8965 30.1334 53.8965H6.94579C5.97093 53.8965 5.13534 53.5483 4.43902 52.852C3.74269 52.1557 3.39453 51.3201 3.39453 50.3452V3.96999C3.39453 2.99513 3.74269 2.15954 4.43902 1.46321C5.13534 0.766891 5.97093 0.418728 6.94579 0.418728H30.1334C31.3868 0.418728 32.3616 0.940971 33.058 1.98546C33.1972 2.19436 33.2146 2.43807 33.1102 2.7166C33.0057 2.99513 32.8491 3.16921 32.6402 3.23885C30.5512 3.93517 29.4023 5.57153 29.1934 8.14793C29.1934 8.84426 29.2978 9.43613 29.5067 9.92356C29.8549 11.5947 30.7253 13.0918 32.1179 14.4149L33.3713 15.5638C33.5802 15.6334 33.6847 15.8423 33.6847 16.1905V23.9197C33.6847 24.4071 33.441 24.7031 32.9535 24.8075C32.4661 24.912 32.1528 24.7553 32.0135 24.3375C31.8046 23.8501 31.4912 23.6063 31.0734 23.6063ZM28.3578 25.9042C28.2881 25.6257 28.2533 25.2775 28.2533 24.8597C28.323 24.0241 28.6189 23.3278 29.1411 22.7708C29.6634 22.2137 30.2727 21.9352 30.969 21.9352C31.3172 21.9352 31.5957 21.97 31.8046 22.0396V16.6083L30.8645 15.7727C29.1237 14.2408 28.0444 12.4651 27.6266 10.4458C27.4177 9.40132 27.3481 8.60055 27.4177 8.04349V7.93904C27.6963 5.36264 28.7756 3.48256 30.6557 2.29881C30.5164 2.22917 30.3423 2.19436 30.1334 2.19436H6.94579C6.45836 2.19436 6.04057 2.36844 5.6924 2.7166C5.34424 3.06476 5.17016 3.48256 5.17016 3.96999V50.3452C5.17016 50.8327 5.34424 51.2504 5.6924 51.5986C6.04057 51.9468 6.45836 52.1209 6.94579 52.1209H30.1334C30.6208 52.1209 31.0386 51.9468 31.3868 51.5986C31.735 51.2504 31.909 50.8327 31.909 50.3452H31.8046V30.3955L29.6112 28.0976C28.9148 27.471 28.497 26.7398 28.3578 25.9042Z" fill="#FFBC05"/>
</g>
</svg>
