<svg width="249" height="71" viewBox="0 0 249 71" fill="none" xmlns="http://www.w3.org/2000/svg">
<g id="Frame 1321317077">
<rect x="0.5" y="0.19043" width="248" height="70" rx="35" fill="black"/>
<g id="Icon">
<path id="Vector" d="M36.3073 14.3366C35.7959 14.8594 35.5 15.6732 35.5 16.7272V54.3227C35.5 55.3767 35.7959 56.1906 36.3073 56.7134L36.4335 56.8281L58.0056 35.7694V35.2721L36.4335 14.2134L36.3073 14.3366Z" fill="url(#paint0_linear_1327_1800)"/>
<path id="Vector_2" d="M65.1886 42.792L58.0059 35.7689V35.2716L65.1973 28.2485L65.3583 28.3399L73.8749 33.0722C76.3054 34.4152 76.3054 36.6252 73.8749 37.9767L65.3583 42.7006L65.1886 42.792Z" fill="url(#paint1_linear_1327_1800)"/>
<path id="Vector_3" d="M65.3584 42.7007L58.0059 35.5203L36.3076 56.713C37.1149 57.5417 38.4313 57.6416 39.9284 56.8128L65.3584 42.7007Z" fill="url(#paint2_linear_1327_1800)"/>
<path id="Vector_4" d="M65.3584 28.3401L39.9284 14.228C38.4313 13.4078 37.1149 13.5076 36.3076 14.3364L58.0059 35.5205L65.3584 28.3401Z" fill="url(#paint3_linear_1327_1800)"/>
</g>
<g id="GET IT ON">
<path id="G" d="M99.3965 18.2335C99.3965 19.4798 99.0144 20.478 98.2617 21.2224C97.3962 22.1049 96.2691 22.549 94.8878 22.549C93.5677 22.549 92.4405 22.0975 91.5158 21.2075C90.5893 20.3045 90.127 19.1962 90.127 17.8697C90.127 16.5432 90.5893 15.4349 91.5158 14.5394C92.4405 13.6419 93.5677 13.1904 94.8878 13.1904C95.545 13.1904 96.1716 13.3229 96.7696 13.5692C97.3657 13.8173 97.8509 14.1532 98.2024 14.5673L97.4039 15.3547C96.7906 14.6476 95.9558 14.2987 94.8878 14.2987C93.9249 14.2987 93.0901 14.627 92.3813 15.2894C91.6802 15.9536 91.3286 16.8137 91.3286 17.8697C91.3286 18.9257 91.6802 19.7933 92.3813 20.4575C93.0901 21.1124 93.9249 21.4482 94.8878 21.4482C95.9099 21.4482 96.7696 21.1124 97.4478 20.45C97.8949 20.0116 98.149 19.4071 98.2158 18.6347H94.8878V17.5563H99.3277C99.3812 17.7895 99.3965 18.0152 99.3965 18.2335Z" fill="white" stroke="black" stroke-width="0.16" stroke-miterlimit="10"/>
<path id="E" d="M106.441 14.4944H102.271V17.3304H106.03V18.4087H102.271V21.2447H106.441V22.3436H101.09V13.3955H106.441V14.4944Z" fill="white" stroke="black" stroke-width="0.16" stroke-miterlimit="10"/>
<path id="T" d="M111.412 22.3436H110.231V14.4944H107.673V13.3955H113.972V14.4944H111.412V22.3436Z" fill="white" stroke="black" stroke-width="0.16" stroke-miterlimit="10"/>
<path id="I" d="M118.529 22.3436V13.3955H119.708V22.3436H118.529Z" fill="white" stroke="black" stroke-width="0.16" stroke-miterlimit="10"/>
<path id="T_2" d="M124.933 22.3436H123.762V14.4944H121.194V13.3955H127.501V14.4944H124.933V22.3436Z" fill="white" stroke="black" stroke-width="0.16" stroke-miterlimit="10"/>
<path id="O" d="M139.425 21.1926C138.521 22.0975 137.402 22.549 136.067 22.549C134.723 22.549 133.604 22.0975 132.7 21.1926C131.799 20.2896 131.35 19.1813 131.35 17.8697C131.35 16.5581 131.799 15.4498 132.7 14.5468C133.604 13.6419 134.723 13.1904 136.067 13.1904C137.394 13.1904 138.514 13.6419 139.417 14.5543C140.327 15.4648 140.776 16.5656 140.776 17.8697C140.776 19.1813 140.327 20.2896 139.425 21.1926ZM133.573 20.4426C134.254 21.1124 135.081 21.4482 136.067 21.4482C137.045 21.4482 137.88 21.1124 138.552 20.4426C139.23 19.7728 139.574 18.9127 139.574 17.8697C139.574 16.8268 139.23 15.9667 138.552 15.2969C137.88 14.6271 137.045 14.2912 136.067 14.2912C135.081 14.2912 134.254 14.6271 133.573 15.2969C132.895 15.9667 132.551 16.8268 132.551 17.8697C132.551 18.9127 132.895 19.7728 133.573 20.4426Z" fill="white" stroke="black" stroke-width="0.16" stroke-miterlimit="10"/>
<path id="N" d="M142.433 22.3436V13.3955H143.865L148.321 20.3547H148.372L148.321 18.6345V13.3955H149.499V22.3436H148.269L143.604 15.0411H143.552L143.604 16.7688V22.3436H142.433Z" fill="white" stroke="black" stroke-width="0.16" stroke-miterlimit="10"/>
</g>
<g id="Google Play">
<path id="Google Play_2" d="M129.185 37.2165C125.752 37.2165 122.948 39.768 122.948 43.2884C122.948 46.7803 125.752 49.3586 129.185 49.3586C132.626 49.3586 135.43 46.7803 135.43 43.2884C135.43 39.768 132.626 37.2165 129.185 37.2165ZM129.185 46.9676C127.302 46.9676 125.681 45.4492 125.681 43.2884C125.681 41.0991 127.302 39.6074 129.185 39.6074C131.069 39.6074 132.697 41.0991 132.697 43.2884C132.697 45.4492 131.069 46.9676 129.185 46.9676ZM115.575 37.2165C112.135 37.2165 109.338 39.768 109.338 43.2884C109.338 46.7803 112.135 49.3586 115.575 49.3586C119.014 49.3586 121.813 46.7803 121.813 43.2884C121.813 39.768 119.014 37.2165 115.575 37.2165ZM115.575 46.9676C113.69 46.9676 112.064 45.4492 112.064 43.2884C112.064 41.0991 113.69 39.6074 115.575 39.6074C117.459 39.6074 119.08 41.0991 119.08 43.2884C119.08 45.4492 117.459 46.9676 115.575 46.9676ZM99.3805 39.0775V41.6576H105.689C105.505 43.0993 105.011 44.1591 104.255 44.8978C103.334 45.79 101.9 46.7803 99.3805 46.7803C95.498 46.7803 92.4578 43.7202 92.4578 39.9286C92.4578 36.137 95.498 33.0769 99.3805 33.0769C101.48 33.0769 103.007 33.878 104.135 34.9165L105.996 33.0983C104.42 31.6281 102.322 30.4986 99.3805 30.4986C94.0565 30.4986 89.582 34.7292 89.582 39.9286C89.582 45.128 94.0565 49.3586 99.3805 49.3586C102.258 49.3586 104.42 48.4379 106.119 46.7107C107.86 45.0102 108.402 42.6193 108.402 40.6887C108.402 40.0892 108.351 39.5378 108.26 39.0775H99.3805ZM165.604 41.0777C165.09 39.7198 163.506 37.2165 160.28 37.2165C157.082 37.2165 154.42 39.677 154.42 43.2884C154.42 46.6893 157.055 49.3586 160.587 49.3586C163.442 49.3586 165.09 47.6581 165.768 46.6678L163.649 45.2886C162.942 46.2985 161.979 46.9676 160.587 46.9676C159.204 46.9676 158.212 46.3485 157.576 45.128L165.891 41.7682L165.604 41.0777ZM157.126 43.0993C157.055 40.7583 158.988 39.5592 160.373 39.5592C161.458 39.5592 162.379 40.0892 162.686 40.8475L157.126 43.0993ZM150.368 48.9892H153.101V31.1463H150.368V48.9892ZM145.892 38.5689H145.8C145.187 37.8588 144.015 37.2165 142.532 37.2165C139.419 37.2165 136.572 39.8858 136.572 43.308C136.572 46.7107 139.419 49.3586 142.532 49.3586C144.015 49.3586 145.187 48.7109 145.8 47.9793H145.892V48.85C145.892 51.1714 144.622 52.4186 142.574 52.4186C140.904 52.4186 139.868 51.241 139.44 50.2507L137.063 51.2196C137.749 52.829 139.563 54.8096 142.574 54.8096C145.778 54.8096 148.483 52.9682 148.483 48.4878V37.5858H145.892V38.5689ZM142.766 46.9676C140.882 46.9676 139.305 45.4278 139.305 43.308C139.305 41.1687 140.882 39.6074 142.766 39.6074C144.622 39.6074 146.085 41.1687 146.085 43.308C146.085 45.4278 144.622 46.9676 142.766 46.9676ZM178.401 31.1463H171.863V48.9892H174.589V42.2285H178.401C181.428 42.2285 184.397 40.0892 184.397 36.6865C184.397 33.2857 181.421 31.1463 178.401 31.1463ZM178.472 39.7466H174.589V33.6282H178.472C180.507 33.6282 181.669 35.2787 181.669 36.6865C181.669 38.0676 180.507 39.7466 178.472 39.7466ZM195.323 37.1826C193.353 37.1826 191.305 38.0319 190.463 39.9143L192.882 40.9046C193.402 39.9143 194.36 39.5931 195.372 39.5931C196.786 39.5931 198.22 40.4228 198.242 41.8877V42.0751C197.749 41.7967 196.693 41.3846 195.394 41.3846C192.789 41.3846 190.134 42.7852 190.134 45.3992C190.134 47.7902 192.268 49.33 194.667 49.33C196.501 49.33 197.513 48.5217 198.149 47.5814H198.242V48.9607H200.875V42.1161C200.875 38.9526 198.456 37.1826 195.323 37.1826ZM194.994 46.9605C194.102 46.9605 192.86 46.5287 192.86 45.4492C192.86 44.0681 194.409 43.5382 195.75 43.5382C196.951 43.5382 197.513 43.7969 198.242 44.1377C198.029 45.79 196.572 46.9605 194.994 46.9605ZM210.467 37.5733L207.334 45.3082H207.241L204.001 37.5733H201.061L205.929 48.3826L203.152 54.3974H206L213.5 37.5733H210.467ZM185.895 48.9892H188.628V31.1463H185.895V48.9892Z" fill="white"/>
</g>
</g>
<defs>
<linearGradient id="paint0_linear_1327_1800" x1="56.0903" y1="54.7143" x2="27.5682" y2="25.5087" gradientUnits="userSpaceOnUse">
<stop stop-color="#00A0FF"/>
<stop offset="0.0066" stop-color="#00A1FF"/>
<stop offset="0.2601" stop-color="#00BEFF"/>
<stop offset="0.5122" stop-color="#00D2FF"/>
<stop offset="0.7604" stop-color="#00DFFF"/>
<stop offset="1" stop-color="#00E3FF"/>
</linearGradient>
<linearGradient id="paint1_linear_1327_1800" x1="77.0398" y1="35.5179" x2="34.9193" y2="35.5179" gradientUnits="userSpaceOnUse">
<stop stop-color="#FFE000"/>
<stop offset="0.4087" stop-color="#FFBD00"/>
<stop offset="0.7754" stop-color="#FFA500"/>
<stop offset="1" stop-color="#FF9C00"/>
</linearGradient>
<linearGradient id="paint2_linear_1327_1800" x1="61.3604" y1="31.617" x2="22.6821" y2="-7.98821" gradientUnits="userSpaceOnUse">
<stop stop-color="#FF3A44"/>
<stop offset="1" stop-color="#C31162"/>
</linearGradient>
<linearGradient id="paint3_linear_1327_1800" x1="30.8457" y1="69.221" x2="48.1173" y2="51.5356" gradientUnits="userSpaceOnUse">
<stop stop-color="#32A071"/>
<stop offset="0.0685" stop-color="#2DA771"/>
<stop offset="0.4762" stop-color="#15CF74"/>
<stop offset="0.8009" stop-color="#06E775"/>
<stop offset="1" stop-color="#00F076"/>
</linearGradient>
</defs>
</svg>
