<svg width="55" height="54" viewBox="0 0 55 54" fill="none" xmlns="http://www.w3.org/2000/svg">
<g id="Icon" clip-path="url(#clip0_1327_1834)">
<path id="Vector" d="M42.4782 35.618C41.4338 36.4536 40.8767 37.6722 40.8071 39.2737C40.8071 40.2486 40.8419 41.7805 40.9115 43.8694C40.9811 45.5406 40.4589 47.4903 39.3448 49.7186C39.2055 49.9275 39.0314 50.1712 38.8225 50.4497C37.7084 51.6335 36.5943 51.6683 35.4802 50.5542C34.0875 49.1615 33.3912 47.4555 33.3912 45.4362C33.2519 39.6567 33.3912 35.4439 33.809 32.7979C33.8786 32.4497 33.9483 32.0667 34.0179 31.6489C34.0875 31.2311 34.1746 30.7785 34.279 30.2911C34.3835 29.8037 34.4357 29.4207 34.4357 29.1422C34.575 28.5155 34.575 27.9932 34.4357 27.5754C34.0875 28.2718 33.8786 28.6547 33.809 28.7244C32.9734 30.0474 32.4512 30.8134 32.2423 31.0223C31.7548 31.6489 31.163 31.8752 30.4666 31.7012C29.7703 31.5271 29.3177 31.0571 29.1088 30.2911C29.0392 29.9429 29.0044 29.6296 29.0044 29.3511C29.2829 25.382 30.2229 21.587 31.8245 17.9662C32.869 15.6683 34.749 14.5193 37.4647 14.5193C37.7432 14.4497 38.2655 14.4323 39.0314 14.4671C39.7974 14.5019 40.3196 14.5193 40.5982 14.5193C40.9463 14.4497 41.2249 14.3105 41.4338 14.1016C40.6678 13.9623 40.25 13.8927 40.1804 13.8927C38.0218 13.6838 36.4376 12.7089 35.4279 10.9681C34.4183 9.22728 34.2964 7.3472 35.0624 5.32786C35.8283 3.51741 36.751 2.24662 37.8303 1.51548C38.9096 0.78434 40.5285 0.4884 42.6871 0.627666C44.4976 0.6973 45.8206 1.14991 46.6562 1.9855C47.2829 2.61219 47.7355 3.58705 48.014 4.91006C48.4318 6.79014 48.2926 8.70504 47.5962 10.6547C46.8999 12.6045 45.5073 13.7186 43.4183 13.9971C45.8554 14.4845 47.1088 14.7631 47.1784 14.8327C50.5904 15.8772 52.575 18.001 53.132 21.2041C53.6891 24.2679 54.0024 26.2872 54.0721 27.2621C54.1417 27.8888 53.9676 28.794 53.5498 29.9778C53.132 31.44 52.2616 31.7882 50.9386 31.0223C50.869 30.9526 50.4163 30.5696 49.5808 29.8733C49.72 31.1267 49.7896 31.7882 49.7896 31.8578C49.9289 35.4091 50.0334 37.8462 50.103 39.1693C50.2423 42.3027 50.3119 44.6006 50.3119 46.0629C50.3119 46.9681 50.1378 47.9429 49.7896 48.9874C49.4415 50.2408 48.5711 51.1112 47.1784 51.5987C45.4376 52.1557 44.2539 51.6335 43.6272 50.0319C43.279 49.1963 43.0005 48.0126 42.7916 46.4807C42.5827 45.1576 42.5827 42.7901 42.7916 39.3782C42.7916 39.2389 42.7916 38.0203 42.7916 35.7224C42.6523 35.7224 42.5479 35.6876 42.4782 35.618ZM37.8825 30.6045C37.9521 30.6741 38.0218 30.7089 38.0914 30.7089C37.8129 31.1267 37.6736 31.3356 37.6736 31.3356C36.6291 32.6586 35.9676 33.4246 35.6891 33.6335C34.9927 34.3298 34.749 35.2698 34.9579 36.4536C36.0024 35.3395 36.7336 34.6083 37.1514 34.2602C37.1514 34.2602 37.1862 34.2776 37.2558 34.3124C37.3254 34.3472 37.3602 34.3994 37.3602 34.4691C37.0121 34.9565 36.8032 35.2002 36.7336 35.2002C36.1765 35.8965 35.6891 36.4884 35.2713 36.9758C34.8535 37.4633 34.749 37.9855 34.9579 38.5426C35.1668 38.3337 35.3931 38.1074 35.6368 37.8636C35.8806 37.6199 36.1243 37.3762 36.368 37.1325C36.6117 36.8888 36.838 36.6973 37.0469 36.558C37.1165 36.558 37.1862 36.5929 37.2558 36.6625C36.7684 37.3588 36.4898 37.707 36.4202 37.707C36.2809 37.9159 35.8632 38.4381 35.1668 39.2737C34.749 39.7611 34.7142 40.2486 35.0624 40.736C36.0372 39.7611 36.8032 38.9952 37.3602 38.4381C37.4995 38.5077 37.5691 38.5774 37.5691 38.647C37.4299 38.8559 37.0121 39.3956 36.3158 40.266C35.6194 41.1364 35.1668 41.8849 34.9579 42.5116C35.6543 42.0242 36.1765 41.6412 36.5247 41.3627C36.455 41.5716 36.072 42.0938 35.3757 42.9294C35.0276 43.3472 34.8535 43.6605 34.8535 43.8694C34.9231 45.471 35.0276 46.5851 35.1668 47.2118C35.3061 47.7689 35.7239 48.5 36.4202 49.4052C36.838 49.9623 37.2906 49.9623 37.778 49.4052C37.9173 49.1963 37.9869 49.0223 37.9869 48.883C39.1707 46.1673 39.6929 43.8694 39.5537 41.9894C39.484 41.0145 39.4492 39.97 39.4492 38.8559C39.5189 37.324 40.1107 36.001 41.2249 34.8869C41.8515 34.2602 42.5131 34.0861 43.2094 34.3646C43.8361 34.6431 44.1494 35.2002 44.1494 36.0358C44.1494 37.8462 44.1494 39.3085 44.1494 40.4226C44.1494 43.765 44.1494 45.7843 44.1494 46.4807C44.2191 47.3163 44.4976 48.3607 44.985 49.6141C45.2635 50.3801 45.838 50.6064 46.7084 50.293C47.5788 49.9797 48.1185 49.44 48.3274 48.6741C48.6059 47.6296 48.7452 46.7592 48.7452 46.0629C48.6755 42.5812 48.5711 39.1344 48.4318 35.7224C48.4318 34.8869 48.3622 33.7553 48.2229 32.3279C48.0837 30.9004 48.014 29.9081 48.014 29.3511C47.9444 28.0977 47.9096 26.7399 47.9096 25.2776C47.9096 25.1383 47.9618 24.9816 48.0662 24.8076C48.1707 24.6335 48.2577 24.5464 48.3274 24.5464C48.6755 24.5464 48.9889 24.6857 49.2674 24.9642C49.337 25.0339 49.4067 25.2079 49.4763 25.4865V25.7998C50.103 27.4014 50.4512 28.3066 50.5208 28.5155C50.9386 29.4207 51.4608 29.9081 52.0875 29.9778C52.575 29.0725 52.7838 28.1673 52.7142 27.2621C52.7142 25.3124 52.192 22.8056 51.1475 19.7418C50.9386 19.2544 50.5208 18.6973 49.8941 18.0706C48.3622 16.5387 46.308 15.7031 43.7316 15.5638C42.0604 15.4942 40.0411 15.4942 37.6736 15.5638C37.1862 15.5638 36.455 15.7031 35.4802 15.9816C35.2016 16.0513 34.9405 16.1731 34.6968 16.3472C34.4531 16.5213 34.2616 16.6605 34.1223 16.765C33.9831 16.8694 33.8264 17.0783 33.6523 17.3917C33.4782 17.705 33.3564 17.8965 33.2867 17.9662C33.2171 18.0358 33.0953 18.2795 32.9212 18.6973C32.7471 19.1151 32.6601 19.3588 32.6601 19.4284C32.7297 19.4284 32.7993 19.4633 32.869 19.5329C32.9386 19.6025 32.9734 19.6373 32.9734 19.6373C33.4608 19.0803 33.9483 18.5232 34.4357 17.9662C34.4357 17.9662 34.4531 17.9836 34.4879 18.0184C34.5227 18.0532 34.575 18.1054 34.6446 18.1751C34.4357 18.5232 33.9134 19.1499 33.0779 20.0551C32.2423 20.9604 31.72 21.8308 31.5111 22.6664C31.7896 22.4575 32.2597 22.0745 32.9212 21.5174C33.5827 20.9604 34.0875 20.5426 34.4357 20.264C34.3661 20.6818 34.1223 21.0648 33.7045 21.413C33.4956 21.6915 33.1649 22.0397 32.7123 22.4575C32.2597 22.8752 31.9289 23.1538 31.72 23.293C31.163 23.8501 30.9541 24.442 31.0933 25.0687C32.1378 24.0242 33.1127 23.0493 34.0179 22.1441C34.1572 22.2137 34.2268 22.2834 34.2268 22.353C33.8786 22.8404 33.6697 23.119 33.6001 23.1886C33.4608 23.3279 33.0953 23.7282 32.5034 24.3898C31.9115 25.0513 31.4415 25.5909 31.0933 26.0087C30.7452 26.4265 30.5363 27.1054 30.4666 28.0455C30.397 28.9855 30.5363 29.7341 30.8844 30.2911C31.3719 30.2911 31.8593 29.8385 32.3467 28.9333C32.5556 28.5851 32.7819 28.2021 33.0256 27.7843C33.2693 27.3665 33.5131 26.9313 33.7568 26.4787C34.0005 26.0261 34.192 25.6257 34.3312 25.2776C34.4009 25.2079 34.6794 24.999 35.1668 24.6509C35.515 25.1383 35.6891 25.382 35.6891 25.382C35.7587 25.7302 35.8632 26.9836 36.0024 29.1422C36.1417 29.0725 36.3854 28.8288 36.7336 28.411C37.0817 27.9932 37.3951 27.7495 37.6736 27.6799C37.4647 27.9584 37.0991 28.4633 36.5769 29.1944C36.0546 29.9255 35.6891 30.587 35.4802 31.1789C35.2713 31.7708 35.2365 32.4497 35.3757 33.2157C36.072 32.4497 36.9076 31.5793 37.8825 30.6045ZM37.1514 11.2814C38.1262 10.0977 39.0662 9.33173 39.9715 8.98357C39.6929 9.2621 39.2751 9.6973 38.7181 10.2892C38.161 10.8811 37.7084 11.3511 37.3602 11.6992C37.9869 11.9778 38.3699 12.1518 38.5092 12.2215C39.5537 10.9681 40.4589 10.1673 41.2249 9.81916C40.9463 10.0977 40.5633 10.5503 40.0759 11.177C39.5885 11.8037 39.2403 12.2215 39.0314 12.4304C40.4241 12.7785 41.7123 12.9178 42.896 12.8482C44.6368 12.6393 45.751 11.7341 46.2384 10.1325C46.8651 8.18279 46.9695 6.40716 46.5517 4.80561C46.0643 3.0648 44.8806 2.02032 43.0005 1.67215C42.5827 1.60252 42.1997 1.5677 41.8515 1.5677C40.1107 1.49807 38.6484 2.08995 37.4647 3.34333C36.2809 4.59672 35.7239 6.09382 35.7935 7.83463C36.072 7.62573 36.3854 7.31239 36.7336 6.89459C37.0817 6.4768 37.4299 6.11123 37.778 5.79788C38.1262 5.48453 38.4744 5.25823 38.8225 5.11896C38.3351 5.74566 37.4995 6.75533 36.3158 8.14798C35.7587 8.70504 35.7239 9.19246 36.2113 9.61026C36.838 8.98357 37.778 8.11316 39.0314 6.99904C39.0314 6.99904 39.0662 7.03386 39.1359 7.10349C39.2055 7.17312 39.2403 7.20794 39.2403 7.20794C37.9173 8.53095 36.9425 9.54063 36.3158 10.2369C36.5247 10.5851 36.8032 10.9333 37.1514 11.2814ZM8.1146 24.9642C7.55754 26.0783 7.27901 26.6702 7.27901 26.7399C6.58269 28.0629 5.64265 29.0029 4.4589 29.56C3.41441 29.9778 2.49178 29.9255 1.69101 29.4033C0.890232 28.8811 0.524661 28.0629 0.594293 26.9487C0.594293 26.3221 0.698742 25.6605 0.90764 24.9642C1.81286 22.0397 3.13588 19.6373 4.87669 17.7573C6.33897 16.2253 8.01015 15.2853 9.89023 14.9371C10.1688 14.9371 10.5517 14.8675 11.0392 14.7282C11.5266 14.589 11.8399 14.4845 11.9792 14.4149C12.4666 14.2756 12.8496 14.206 13.1281 14.206C16.2616 14.0667 19.4299 15.0764 22.633 17.235C23.6078 17.9313 24.3042 18.941 24.722 20.264C25.4183 22.5619 25.7664 23.8153 25.7664 24.0242C26.1842 25.8346 25.9753 27.3317 25.1397 28.5155C24.5827 29.4207 23.8864 29.8385 23.0508 29.7689C22.2152 29.6992 21.5885 29.177 21.1707 28.2021C21.1011 28.1325 20.7529 27.2969 20.1262 25.6954C19.7084 27.2273 19.4995 28.0629 19.4995 28.2021C19.4299 28.6199 19.5343 29.0029 19.8129 29.3511C21.6233 31.5097 23.2597 34.1557 24.722 37.2892C25.1397 38.0551 25.4879 38.8907 25.7664 39.7959C26.045 40.5619 25.8013 41.0493 25.0353 41.2582C24.8264 41.2582 23.6775 41.4323 21.5885 41.7805C21.5885 42.8946 21.5885 43.4865 21.5885 43.5561C21.6581 46.2021 21.31 48.5 20.544 50.4497C20.1262 51.4246 19.6736 52.1905 19.1862 52.7476C18.4898 53.5135 17.7587 53.8617 16.9927 53.7921C16.2268 53.7224 15.5653 53.2698 15.0082 52.4342C14.4512 51.6683 14.2074 50.6934 14.2771 49.5097C14.4163 46.237 14.486 44.3221 14.486 43.765C14.486 43.6954 14.3467 42.7553 14.0682 40.9449C13.5808 41.3627 13.3719 41.8849 13.4415 42.5116C13.5111 44.8095 13.5808 46.237 13.6504 46.794C13.7897 48.6741 13.5111 50.3105 12.8148 51.7031C12.1881 52.9565 11.457 53.5484 10.6214 53.4787C9.15909 53.4091 8.14942 52.852 7.59236 51.8076C7.0353 50.6238 6.75677 49.1615 6.75677 47.4207C6.75677 47.2118 6.8264 45.2273 6.96567 41.4671C6.96567 41.4671 6.96567 41.1538 6.96567 40.5271C6.68714 40.5967 6.37379 40.7012 6.02563 40.8404C5.5382 40.5619 5.29449 40.4226 5.29449 40.4226C5.08559 40.4226 4.82447 40.4052 4.51112 40.3704C4.19778 40.3356 3.93665 40.2834 3.72776 40.2137C2.68327 39.9352 2.36992 39.2737 2.78772 38.2292C3.41441 36.9758 4.31963 35.0958 5.50338 32.589C6.8264 29.9429 7.80126 28.0629 8.42795 26.9487C8.56721 26.6702 8.46277 26.0087 8.1146 24.9642ZM16.9927 52.5387C17.9676 52.1209 18.6987 51.2157 19.1862 49.823C19.8825 47.7341 20.2307 45.0532 20.2307 41.7805C20.161 41.2234 20.2132 40.8578 20.3873 40.6838C20.5614 40.5097 20.927 40.3878 21.484 40.3182C21.6233 40.3182 21.8322 40.3182 22.1107 40.3182C22.3893 40.3182 22.5982 40.2834 22.7374 40.2137C22.8071 40.2137 23.3293 40.1441 24.3042 40.0048C23.7471 38.6122 23.4338 37.8811 23.3641 37.8114C21.9715 34.7476 20.3003 32.1016 18.3506 29.8733C17.9328 29.3163 17.7935 28.8288 17.9328 28.411C18.2113 27.2273 18.6987 25.5909 19.3951 23.5019C19.3951 23.4323 19.6388 23.1886 20.1262 22.7708C20.544 23.2582 20.7529 23.5019 20.7529 23.5019C20.8922 23.9197 21.1185 24.5464 21.4318 25.382C21.7452 26.2176 21.9715 26.8791 22.1107 27.3665C22.1107 27.3665 22.3893 27.7843 22.9463 28.6199C23.2249 28.4807 23.4163 28.3762 23.5208 28.3066C23.6252 28.237 23.7471 28.1499 23.8864 28.0455C24.0256 27.941 24.1127 27.8366 24.1475 27.7321C24.1823 27.6277 24.2345 27.471 24.3042 27.2621C24.722 26.2176 24.7568 25.1731 24.4086 24.1286C24.1997 23.5716 23.7819 22.3182 23.1552 20.3685C22.8071 19.3936 22.2152 18.6625 21.3796 18.1751C18.5943 16.3646 16.0527 15.4594 13.7548 15.4594C11.2481 15.3898 9.19391 15.8424 7.59236 16.8172C5.99081 17.7921 4.63298 19.3588 3.51886 21.5174C3.51886 21.587 3.37959 22.0048 3.10106 22.7708C3.72776 22.2137 4.59816 21.3782 5.71228 20.264C5.78191 20.3337 5.85155 20.4033 5.92118 20.4729C5.29449 21.1693 4.98114 21.5522 4.98114 21.6219C4.77224 21.8308 4.44149 22.1615 3.98888 22.6141C3.53627 23.0667 3.20551 23.3975 2.99661 23.6064C2.43955 24.1635 2.23066 24.7205 2.36992 25.2776C2.50919 25.2079 2.90957 24.825 3.57108 24.1286C4.23259 23.4323 4.80706 22.9797 5.29449 22.7708C5.08559 23.0493 4.77224 23.4323 4.35445 23.9197C3.93665 24.4072 3.65812 24.7205 3.51886 24.8598C3.44923 24.999 3.27514 25.2079 2.99661 25.4865C2.71808 25.765 2.49178 26.0435 2.3177 26.3221C2.14362 26.6006 2.02176 26.9139 1.95213 27.2621C2.57882 26.6354 3.44923 25.8346 4.56335 24.8598C4.63298 24.9294 4.70261 24.999 4.77224 25.0687C4.07592 25.8346 3.1707 26.8443 2.05658 28.0977C2.19584 28.1673 2.30029 28.237 2.36992 28.3066C2.43955 28.3762 2.5266 28.4284 2.63104 28.4633C2.73549 28.4981 2.82253 28.5503 2.89217 28.6199C3.03143 28.4807 3.20551 28.2892 3.41441 28.0455C3.62331 27.8017 3.79739 27.6103 3.93665 27.471C3.93665 27.471 3.97147 27.5058 4.0411 27.5754C3.97147 27.6451 3.90184 27.7669 3.8322 27.941C3.76257 28.1151 3.69294 28.237 3.62331 28.3066C4.38926 28.0977 5.01596 27.6451 5.50338 26.9487C6.40861 25.6257 7.0353 24.3027 7.38346 22.9797C7.52273 22.4226 7.80126 22.1441 8.21905 22.1441C8.63685 22.1441 8.91538 22.4226 9.05464 22.9797C9.47244 24.3027 9.78578 25.1731 9.99468 25.5909C10.2732 26.2176 10.2036 26.8443 9.78578 27.471C9.71615 27.6103 9.19391 28.6547 8.21905 30.6045C8.49758 30.5348 8.88056 30.2911 9.36799 29.8733C9.85542 29.4555 10.308 29.2118 10.7258 29.1422C9.75097 30.117 9.22872 30.6393 9.15909 30.7089C9.15909 30.7089 8.95019 30.883 8.5324 31.2311C8.1146 31.5793 7.83607 31.8578 7.69681 32.0667C7.27901 32.4149 6.93085 33.0416 6.65232 33.9468C7.00048 33.7379 7.38346 33.4594 7.80126 33.1112C8.21905 32.7631 8.60203 32.4671 8.95019 32.2234C9.29836 31.9797 9.64652 31.823 9.99468 31.7534C9.29836 32.4497 8.07979 33.529 6.33897 34.9913C5.78191 35.4787 5.5382 35.8965 5.60783 36.2447C5.81673 36.1751 6.1823 35.8965 6.70455 35.4091C7.22679 34.9217 7.73162 34.6431 8.21905 34.5735C7.87089 34.9217 7.20938 35.5484 6.23453 36.4536C5.25967 37.3588 4.59816 38.1596 4.25 38.8559C4.80706 39.1344 5.29449 39.03 5.71228 38.5426C6.47824 37.6373 7.31383 36.9758 8.21905 36.558C8.07979 36.8366 7.73162 37.2195 7.17456 37.707C6.6175 38.1944 6.23453 38.647 6.02563 39.0648C6.65232 39.0648 6.96567 39.0648 6.96567 39.0648C7.59236 38.9952 8.02756 39.0822 8.27128 39.3259C8.51499 39.5696 8.60203 39.97 8.5324 40.5271C8.5324 40.8056 8.51499 41.206 8.48017 41.7282C8.44536 42.2505 8.42795 42.6857 8.42795 43.0339C8.35832 44.8443 8.35832 45.854 8.42795 46.0629C8.91538 45.5754 9.36799 45.1576 9.78578 44.8095C9.64652 45.088 9.35058 45.5406 8.89797 46.1673C8.44536 46.794 8.25387 47.3511 8.3235 47.8385C8.5324 47.6992 8.88056 47.4555 9.36799 47.1074C9.29836 47.3163 9.12427 47.5948 8.84574 47.9429C8.56721 48.2911 8.41054 48.5348 8.37572 48.6741C8.34091 48.8134 8.39313 49.0919 8.5324 49.5097C8.60203 49.5097 8.7413 49.4749 8.95019 49.4052C9.15909 49.3356 9.33317 49.266 9.47244 49.1963C9.33317 49.4052 9.15909 49.6664 8.95019 49.9797C8.7413 50.293 8.63685 50.4845 8.63685 50.5542C8.98501 51.1809 9.19391 51.529 9.26354 51.5987C9.6117 51.9468 9.97727 52.1035 10.3603 52.0687C10.7432 52.0339 11.0392 51.7727 11.2481 51.2853C11.7355 50.1712 12.014 49.1963 12.0837 48.3607C12.0837 48.0126 12.0837 46.6199 12.0837 44.1828C12.0837 42.9294 12.1185 42.2679 12.1881 42.1983C12.3274 41.3627 12.5711 40.6664 12.9192 40.1093C13.1978 39.7611 13.5459 39.6045 13.9637 39.6393C14.3815 39.6741 14.7297 39.9004 15.0082 40.3182C15.0779 40.4575 15.2171 40.7708 15.426 41.2582C15.7742 42.3723 15.9134 43.8346 15.8438 45.6451C15.8438 46.1325 15.809 46.8462 15.7394 47.7863C15.6697 48.7263 15.6349 49.44 15.6349 49.9275C15.6349 50.9023 16.0875 51.7727 16.9927 52.5387ZM20.544 7.31239C20.3351 8.91393 20.2307 9.78434 20.2307 9.9236C19.7432 11.9429 18.4202 13.1963 16.2616 13.6838C13.6852 14.2408 11.2829 13.6489 9.05464 11.9081C7.94052 11.0029 7.41828 9.95842 7.48791 8.77467C7.48791 7.45165 7.59236 6.2679 7.80126 5.22341C8.14942 3.69149 9.22872 2.61219 11.0392 1.9855C11.3177 1.91587 12.397 1.70697 14.2771 1.35881C14.4163 1.28917 14.6426 1.25436 14.956 1.25436C15.2693 1.25436 15.4956 1.21954 15.6349 1.14991C17.2365 0.87138 18.455 1.42844 19.2906 2.82109C20.1262 4.21374 20.544 5.71084 20.544 7.31239ZM12.0837 12.0126C12.78 12.1518 13.1456 12.2215 13.1804 12.2215C13.2152 12.2215 13.5459 12.0126 14.1726 11.5948C14.103 11.8733 14.0682 12.1518 14.0682 12.4304C14.1378 12.4304 14.2597 12.413 14.4338 12.3782C14.6078 12.3433 14.7645 12.3259 14.9038 12.3259C15.043 12.3259 15.1475 12.3259 15.2171 12.3259C17.0972 12.1867 18.3158 11.2814 18.8728 9.61026C19.6388 7.24275 19.2906 5.04933 17.8283 3.02999C17.5498 2.68182 17.0624 2.43811 16.3661 2.29885C14.9038 1.95068 13.2674 2.12476 11.457 2.82109C9.43762 3.58705 8.5324 5.08414 8.7413 7.31239C9.64652 6.33753 10.1339 5.81529 10.2036 5.74566C10.0643 6.23308 9.64652 6.96422 8.95019 7.93908C8.7413 8.28724 8.65425 8.53095 8.68907 8.67022C8.72389 8.80948 8.84574 9.12283 9.05464 9.61026C9.47244 9.12283 9.69874 8.86171 9.73356 8.82689C9.76837 8.79208 9.95986 8.6354 10.308 8.35687C10.3777 8.35687 10.4125 8.39169 10.4125 8.46132C10.3428 8.60059 9.95986 9.22728 9.26354 10.3414C9.68133 10.6199 9.99468 10.8636 10.2036 11.0725C11.3873 9.81916 12.1533 9.0532 12.5015 8.77467C12.5015 8.77467 12.5015 8.80948 12.5015 8.87912C12.5711 8.87912 12.6407 8.91393 12.7103 8.98357C11.8051 10.0281 11.1436 10.794 10.7258 11.2814C11.1436 11.7689 11.5266 11.8037 11.8748 11.3859C12.5711 10.7592 13.0933 10.411 13.4415 10.3414C13.163 10.6896 12.7103 11.2466 12.0837 12.0126ZM26.4976 8.77467C27.5421 7.93908 28.0991 7.48647 28.1688 7.41684C28.7955 6.92941 29.3873 6.77273 29.9444 6.94682C30.5014 7.1209 30.8496 7.59092 30.9889 8.35687C31.337 10.6547 30.9192 12.6393 29.7355 14.3105C29.2481 14.9371 28.5169 15.2505 27.5421 15.2505C26.219 15.2505 25.1049 14.7979 24.1997 13.8927C23.2945 12.9874 22.8767 11.8385 22.9463 10.4458C23.016 8.98357 23.7819 8.35687 25.2442 8.56577C25.3138 8.56577 25.7316 8.6354 26.4976 8.77467ZM27.4376 1.67215C28.0643 1.11509 28.4125 0.836563 28.4821 0.836563C29.1784 0.349136 29.8051 0.31432 30.3622 0.732113C30.78 1.14991 30.8148 1.74179 30.4666 2.50774C29.9096 3.83076 29.0392 4.59672 27.8554 4.80561C27.1591 4.94488 26.515 4.82302 25.9231 4.44004C25.3312 4.05707 25.0005 3.51741 24.9309 2.82109C24.8612 2.40329 24.9657 2.07254 25.2442 1.82883C25.5227 1.58511 25.8709 1.46326 26.2887 1.46326C26.2887 1.46326 26.6717 1.53289 27.4376 1.67215ZM31.6156 27.0532C31.6852 26.9139 31.8419 26.7224 32.0856 26.4787C32.3293 26.235 32.5208 26.0435 32.6601 25.9043L32.7645 26.0087L32.869 26.1132C32.7993 26.1828 32.6426 26.3569 32.3989 26.6354C32.1552 26.9139 31.9637 27.1228 31.8245 27.2621C31.7548 27.1925 31.6852 27.1228 31.6156 27.0532Z" fill="#FFBC05"/>
</g>
<defs>
<clipPath id="clip0_1327_1834">
<rect width="54" height="54" fill="white" transform="matrix(1 0 0 -1 0.333008 54)"/>
</clipPath>
</defs>
</svg>
